<svg id="_x33_0" enable-background="new 0 0 64 64" height="512" viewBox="0 0 64 64" width="512" xmlns="http://www.w3.org/2000/svg"><g><g><g><path d="m62 12v44c0 2.21-1.79 4-4 4h-32v-23c0-.55-.45-1-1-1h-3v-8h3c.55 0 1-.45 1-1v-19h6c0 .55.22 1.05.59 1.41.36.37.86.59 1.41.59h16c1.1 0 2-.9 2-2h6c2.21 0 4 1.79 4 4z" fill="#e6e9ed"/></g><g><path d="m38 46v6h-8v-8h8z" fill="#ff826e"/></g><g><path d="m38 32v6h-8v-8h8z" fill="#ff826e"/></g><g><path d="m38 18v6h-8v-8h8z" fill="#ff826e"/></g><g><path d="m52 8c0 1.1-.9 2-2 2h-16c-.55 0-1.05-.22-1.41-.59-.37-.36-.59-.86-.59-1.41 0-2.21 1.79-4 4-4h12c1.1 0 2.1.45 2.83 1.17.72.73 1.17 1.73 1.17 2.83z" fill="#b4dd7f"/></g><g><path d="m25 2h-22c-.55 0-1 .45-1 1v24c0 .55.45 1 1 1h19 3c.55 0 1-.45 1-1v-19-5c0-.55-.45-1-1-1z" fill="#d3a06c"/></g><g><path d="m25 35.813h-22c-.55 0-1 .45-1 1v24c0 .55.45 1 1 1h19 3c.55 0 1-.45 1-1v-19-5c0-.55-.45-1-1-1z" fill="#d3a06c"/></g><g><path d="m8 36h12v7c0 .55-.45 1-1 1h-3-4-3c-.55 0-1-.45-1-1z" fill="#b27946"/></g><g><path d="m8 2h12v7c0 .55-.45 1-1 1h-3-4-3c-.55 0-1-.45-1-1z" fill="#b27946"/></g></g><g><path d="m5 57h2v2h-2z"/><path d="m9 57h2v2h-2z"/><path d="m5 23h2v2h-2z"/><path d="m9 23h2v2h-2z"/><path d="m58 7h-5.101c-.465-2.279-2.485-4-4.899-4h-12c-2.414 0-4.434 1.721-4.899 4h-4.101v-4c0-1.103-.897-2-2-2h-22c-1.103 0-2 .897-2 2v24c0 1.103.897 2 2 2h18v6h-18c-1.103 0-2 .897-2 2v24c0 1.103.897 2 2 2h22c1.103 0 2-.897 2-2h31c2.757 0 5-2.243 5-5v-44c0-2.757-2.243-5-5-5zm-22-2h12c1.654 0 3 1.346 3 3 0 .551-.448 1-1 1h-16c-.552 0-1-.449-1-1 0-1.654 1.346-3 3-3zm-21 0v4h-2v-4h-2v4h-2v-6h10v6h-2v-4zm-12-2h4v6c0 1.103.897 2 2 2h10c1.103 0 2-.897 2-2v-6h4l.001 24h-22.001zm12 36v4h-2v-4h-2v4h-2v-6h10v6h-2v-4zm-12 22v-24h4v6c0 1.103.897 2 2 2h10c1.103 0 2-.897 2-2v-6h4l.001 24zm58-5c0 1.654-1.346 3-3 3h-31v-22c0-1.103-.897-2-2-2h-2v-6h2c1.103 0 2-.897 2-2v-18h4.184c.414 1.161 1.514 2 2.816 2h16c1.302 0 2.402-.839 2.816-2h5.184c1.654 0 3 1.346 3 3z"/><path d="m39 15.586v-.586h-10v10h10v-6.586l3.707-3.707-1.414-1.414zm-2 7.414h-6v-6h6v.586l-2 2-1.293-1.293-1.414 1.414 2.707 2.707 2-2z"/><path d="m45 15h12v2h-12z"/><path d="m45 19h12v2h-12z"/><path d="m55 23h2v2h-2z"/><path d="m45 23h8v2h-8z"/><path d="m39 29.586v-.586h-10v10h10v-6.586l3.707-3.707-1.414-1.414zm-2 7.414h-6v-6h6v.586l-2 2-1.293-1.293-1.414 1.414 2.707 2.707 2-2z"/><path d="m45 29h12v2h-12z"/><path d="m45 33h12v2h-12z"/><path d="m55 37h2v2h-2z"/><path d="m45 37h8v2h-8z"/><path d="m41.293 41.293-2.293 2.293v-.586h-10v10h10v-6.586l3.707-3.707zm-4.293 9.707h-6v-6h6v.586l-2 2-1.293-1.293-1.414 1.414 2.707 2.707 2-2z"/><path d="m45 43h12v2h-12z"/><path d="m45 47h12v2h-12z"/><path d="m55 51h2v2h-2z"/><path d="m45 51h8v2h-8z"/></g></g></svg>