<svg id="svg" version="1.1" xmlns="http://www.w3.org/2000/svg" xmlns:xlink="http://www.w3.org/1999/xlink" width="400" height="400" viewBox="0, 0, 400,400"><g id="svgg"><path id="path0" d="M71.742 49.400 C 71.741 51.380,71.808 52.240,71.892 51.312 C 71.976 50.384,71.977 48.764,71.895 47.712 C 71.812 46.660,71.743 47.420,71.742 49.400 M263.600 153.232 C 254.375 153.543,249.582 153.994,245.540 154.931 C 244.143 155.255,241.920 155.745,240.600 156.020 C 239.280 156.294,237.210 156.778,236.000 157.094 C 234.790 157.411,233.260 157.806,232.600 157.973 C 231.130 158.346,225.122 160.399,221.600 161.733 C 219.074 162.690,210.220 166.918,207.800 168.323 C 207.140 168.706,205.700 169.542,204.600 170.180 C 195.386 175.522,182.457 186.483,175.557 194.800 C 174.371 196.230,173.304 197.490,173.188 197.600 C 173.071 197.710,172.116 198.970,171.065 200.400 C 170.015 201.830,168.939 203.270,168.674 203.600 C 165.842 207.130,160.872 215.850,157.502 223.200 C 155.283 228.042,154.800 229.216,154.800 229.772 C 154.800 230.091,154.620 230.464,154.400 230.600 C 154.180 230.736,154.000 231.251,154.000 231.744 C 154.000 232.237,153.857 232.811,153.682 233.020 C 153.168 233.634,152.389 236.178,150.660 242.900 C 150.144 244.904,149.698 246.978,148.832 251.400 C 146.655 262.525,146.631 281.278,148.780 292.400 C 151.305 305.465,154.064 313.640,160.117 326.000 C 162.739 331.352,165.732 336.482,167.630 338.877 C 168.273 339.689,168.800 340.464,168.800 340.600 C 168.800 341.083,176.705 350.823,178.123 352.088 C 178.548 352.466,178.793 353.041,178.669 353.364 C 178.527 353.735,179.287 354.774,180.722 356.169 C 186.377 361.673,187.606 362.800,187.951 362.800 C 188.153 362.800,189.238 363.700,190.361 364.800 C 191.485 365.900,192.582 366.800,192.799 366.800 C 193.016 366.800,193.418 367.160,193.693 367.600 C 193.968 368.040,194.345 368.400,194.531 368.400 C 194.907 368.400,198.141 370.608,199.366 371.700 C 199.798 372.085,200.365 372.400,200.626 372.400 C 200.888 372.400,201.289 372.626,201.518 372.901 C 201.747 373.177,203.164 374.026,204.667 374.787 C 206.170 375.549,207.490 376.283,207.600 376.418 C 207.710 376.553,208.385 376.919,209.100 377.230 C 209.815 377.541,210.400 377.931,210.400 378.098 C 210.400 378.264,210.760 378.400,211.200 378.400 C 211.640 378.400,212.000 378.580,212.000 378.800 C 212.000 379.020,212.360 379.200,212.800 379.200 C 213.240 379.200,213.600 379.380,213.600 379.600 C 213.600 379.820,213.960 380.000,214.400 380.000 C 214.840 380.000,215.200 380.180,215.200 380.400 C 215.200 380.620,215.560 380.800,216.000 380.800 C 216.440 380.800,216.800 380.980,216.800 381.200 C 216.800 381.420,217.149 381.600,217.576 381.600 C 218.003 381.600,218.464 381.780,218.600 382.000 C 218.736 382.220,219.163 382.400,219.548 382.400 C 219.934 382.400,220.995 382.760,221.906 383.200 C 222.816 383.640,223.840 384.000,224.181 384.000 C 224.521 384.000,224.800 384.180,224.800 384.400 C 224.800 384.620,225.239 384.800,225.776 384.800 C 226.313 384.800,226.864 384.980,227.000 385.200 C 227.136 385.420,227.676 385.600,228.200 385.600 C 228.724 385.600,229.264 385.780,229.400 386.000 C 229.536 386.220,230.166 386.400,230.800 386.400 C 231.434 386.400,232.064 386.580,232.200 386.800 C 232.336 387.020,232.977 387.200,233.624 387.200 C 234.271 387.200,234.800 387.380,234.800 387.600 C 234.800 387.820,235.509 388.000,236.376 388.000 C 237.243 388.000,238.064 388.180,238.200 388.400 C 238.336 388.620,239.247 388.800,240.224 388.800 C 241.201 388.800,242.000 388.963,242.000 389.163 C 242.000 389.513,242.924 389.653,249.000 390.222 C 250.540 390.366,251.971 390.645,252.180 390.842 C 252.686 391.319,278.528 391.309,279.020 390.831 C 279.229 390.628,280.660 390.367,282.200 390.250 C 286.558 389.920,288.966 389.555,289.380 389.161 C 289.589 388.963,290.433 388.800,291.256 388.800 C 292.079 388.800,292.864 388.620,293.000 388.400 C 293.136 388.180,293.957 388.000,294.824 388.000 C 295.691 388.000,296.400 387.820,296.400 387.600 C 296.400 387.380,296.929 387.200,297.576 387.200 C 298.223 387.200,298.864 387.020,299.000 386.800 C 299.136 386.580,299.867 386.400,300.624 386.400 C 301.381 386.400,302.000 386.220,302.000 386.000 C 302.000 385.780,302.540 385.600,303.200 385.600 C 303.860 385.600,304.400 385.420,304.400 385.200 C 304.400 384.980,304.726 384.800,305.125 384.800 C 305.524 384.800,306.595 384.440,307.506 384.000 C 308.416 383.560,309.440 383.200,309.781 383.200 C 310.121 383.200,310.400 383.020,310.400 382.800 C 310.400 382.580,310.839 382.400,311.376 382.400 C 311.913 382.400,312.464 382.220,312.600 382.000 C 312.736 381.780,313.197 381.600,313.624 381.600 C 314.051 381.600,314.400 381.420,314.400 381.200 C 314.400 380.980,314.760 380.800,315.200 380.800 C 315.640 380.800,316.000 380.620,316.000 380.400 C 316.000 380.180,316.360 380.000,316.800 380.000 C 317.240 380.000,317.600 379.820,317.600 379.600 C 317.600 379.380,317.960 379.200,318.400 379.200 C 318.840 379.200,319.200 379.020,319.200 378.800 C 319.200 378.580,319.560 378.400,320.000 378.400 C 320.440 378.400,320.800 378.220,320.800 378.000 C 320.800 377.780,321.160 377.600,321.600 377.600 C 322.040 377.600,322.400 377.420,322.400 377.200 C 322.400 376.980,322.670 376.800,323.000 376.800 C 323.330 376.800,323.600 376.620,323.600 376.400 C 323.600 376.180,323.883 376.000,324.229 376.000 C 324.574 376.000,325.127 375.730,325.457 375.400 C 325.787 375.070,326.404 374.800,326.829 374.800 C 327.253 374.800,327.600 374.642,327.600 374.449 C 327.600 374.255,328.140 373.873,328.800 373.600 C 329.460 373.327,330.000 372.945,330.000 372.751 C 330.000 372.558,330.320 372.400,330.712 372.400 C 331.103 372.400,331.683 372.040,332.000 371.600 C 332.317 371.160,332.857 370.800,333.200 370.800 C 333.543 370.800,334.083 370.440,334.400 370.000 C 334.717 369.560,335.180 369.200,335.429 369.200 C 335.678 369.200,336.446 368.660,337.137 368.000 C 337.828 367.340,338.574 366.800,338.796 366.800 C 339.018 366.800,339.200 366.650,339.200 366.468 C 339.200 366.285,339.647 365.896,340.193 365.604 C 340.740 365.311,341.292 364.741,341.420 364.336 C 341.549 363.931,341.915 363.600,342.234 363.600 C 342.553 363.600,343.936 362.518,345.307 361.194 C 352.374 354.376,353.524 353.235,355.000 351.582 C 355.880 350.597,357.050 349.190,357.600 348.455 C 358.150 347.720,359.005 346.696,359.500 346.178 C 359.995 345.660,360.400 345.030,360.400 344.779 C 360.400 344.527,360.940 343.817,361.600 343.200 C 362.260 342.583,362.800 341.881,362.800 341.640 C 362.800 341.398,362.950 341.200,363.132 341.200 C 363.315 341.200,363.719 340.705,364.030 340.100 C 364.340 339.495,364.911 338.709,365.297 338.353 C 365.684 337.997,366.000 337.452,366.000 337.141 C 366.000 336.831,366.360 336.317,366.800 336.000 C 367.240 335.683,367.600 335.103,367.600 334.712 C 367.600 334.320,367.780 334.000,368.000 334.000 C 368.220 334.000,368.400 333.722,368.400 333.383 C 368.400 333.044,368.760 332.380,369.200 331.908 C 369.640 331.436,370.000 330.813,370.000 330.525 C 370.000 330.236,370.180 330.000,370.400 330.000 C 370.620 330.000,370.800 329.640,370.800 329.200 C 370.800 328.760,370.980 328.400,371.200 328.400 C 371.420 328.400,371.600 328.040,371.600 327.600 C 371.600 327.160,371.780 326.800,372.000 326.800 C 372.220 326.800,372.400 326.440,372.400 326.000 C 372.400 325.560,372.580 325.200,372.800 325.200 C 373.020 325.200,373.200 324.913,373.200 324.562 C 373.200 324.211,373.561 323.416,374.003 322.795 C 374.445 322.175,374.918 321.108,375.055 320.425 C 375.192 319.742,375.460 319.086,375.652 318.968 C 375.843 318.850,376.000 318.313,376.000 317.776 C 376.000 317.239,376.180 316.800,376.400 316.800 C 376.620 316.800,376.800 316.350,376.800 315.800 C 376.800 315.250,376.980 314.800,377.200 314.800 C 377.420 314.800,377.600 314.350,377.600 313.800 C 377.600 313.250,377.780 312.800,378.000 312.800 C 378.220 312.800,378.400 312.260,378.400 311.600 C 378.400 310.940,378.580 310.400,378.800 310.400 C 379.020 310.400,379.200 309.961,379.200 309.424 C 379.200 308.887,379.380 308.336,379.600 308.200 C 379.820 308.064,380.000 307.434,380.000 306.800 C 380.000 306.166,380.180 305.536,380.400 305.400 C 380.620 305.264,380.800 304.623,380.800 303.976 C 380.800 303.329,380.980 302.800,381.200 302.800 C 381.420 302.800,381.600 302.080,381.600 301.200 C 381.600 300.320,381.780 299.600,382.000 299.600 C 382.220 299.600,382.400 298.700,382.400 297.600 C 382.400 296.500,382.580 295.600,382.800 295.600 C 383.020 295.600,383.200 294.700,383.200 293.600 C 383.200 292.500,383.380 291.600,383.600 291.600 C 383.831 291.600,384.000 290.341,384.000 288.624 C 384.000 286.987,384.180 285.536,384.400 285.400 C 384.654 285.243,384.800 280.263,384.800 271.776 C 384.800 263.125,384.659 258.400,384.400 258.400 C 384.169 258.400,384.000 257.141,384.000 255.424 C 384.000 253.787,383.820 252.336,383.600 252.200 C 383.380 252.064,383.200 251.063,383.200 249.976 C 383.200 248.889,383.020 248.000,382.800 248.000 C 382.580 248.000,382.400 247.201,382.400 246.224 C 382.400 245.247,382.220 244.336,382.000 244.200 C 381.780 244.064,381.600 243.333,381.600 242.576 C 381.600 241.819,381.420 241.200,381.200 241.200 C 380.980 241.200,380.800 240.581,380.800 239.824 C 380.800 239.067,380.620 238.336,380.400 238.200 C 380.180 238.064,380.000 237.423,380.000 236.776 C 380.000 236.129,379.820 235.600,379.600 235.600 C 379.380 235.600,379.200 235.060,379.200 234.400 C 379.200 233.740,379.020 233.200,378.800 233.200 C 378.580 233.200,378.400 232.838,378.400 232.395 C 378.400 231.952,378.220 231.232,378.000 230.795 C 377.780 230.358,377.420 229.642,377.200 229.205 C 376.980 228.768,376.800 228.048,376.800 227.605 C 376.800 227.162,376.620 226.800,376.400 226.800 C 376.180 226.800,376.000 226.350,376.000 225.800 C 376.000 225.250,375.820 224.800,375.600 224.800 C 375.380 224.800,375.199 224.485,375.198 224.100 C 375.196 223.715,374.926 222.884,374.598 222.254 C 374.269 221.624,374.000 220.859,374.000 220.554 C 374.000 220.249,373.865 219.999,373.700 219.997 C 373.341 219.993,372.400 218.056,372.400 217.320 C 372.400 217.034,372.265 216.799,372.100 216.797 C 371.741 216.793,370.800 214.856,370.800 214.120 C 370.800 213.834,370.620 213.600,370.400 213.600 C 370.180 213.600,370.000 213.358,370.000 213.062 C 370.000 212.766,369.640 212.198,369.200 211.800 C 368.760 211.402,368.400 210.834,368.400 210.538 C 368.400 210.242,368.220 210.000,368.000 210.000 C 367.780 210.000,367.600 209.680,367.600 209.288 C 367.600 208.897,367.240 208.317,366.800 208.000 C 366.360 207.683,366.000 207.143,366.000 206.800 C 366.000 206.457,365.640 205.917,365.200 205.600 C 364.760 205.283,364.400 204.743,364.400 204.400 C 364.400 204.057,364.040 203.517,363.600 203.200 C 363.160 202.883,362.800 202.375,362.800 202.072 C 362.800 201.769,362.260 201.017,361.600 200.400 C 360.940 199.783,360.400 199.057,360.400 198.786 C 360.400 198.516,360.084 198.003,359.698 197.647 C 359.312 197.291,358.277 196.102,357.398 195.005 C 355.167 192.220,342.844 180.000,342.266 180.000 C 342.006 180.000,341.569 179.642,341.296 179.205 C 341.023 178.767,340.124 177.977,339.300 177.448 C 338.475 176.919,337.403 176.107,336.917 175.643 C 336.431 175.179,335.796 174.800,335.505 174.800 C 335.214 174.800,334.717 174.440,334.400 174.000 C 334.083 173.560,333.543 173.200,333.200 173.200 C 332.857 173.200,332.317 172.840,332.000 172.400 C 331.683 171.960,331.143 171.600,330.800 171.600 C 330.457 171.600,329.917 171.240,329.600 170.800 C 329.283 170.360,328.703 170.000,328.312 170.000 C 327.920 170.000,327.600 169.820,327.600 169.600 C 327.600 169.380,327.306 169.200,326.947 169.200 C 326.588 169.200,326.003 168.871,325.647 168.470 C 325.291 168.068,324.415 167.484,323.700 167.172 C 322.985 166.860,322.400 166.469,322.400 166.302 C 322.400 166.136,322.040 166.000,321.600 166.000 C 321.160 166.000,320.800 165.820,320.800 165.600 C 320.800 165.380,320.440 165.200,320.000 165.200 C 319.560 165.200,319.200 165.020,319.200 164.800 C 319.200 164.580,318.840 164.400,318.400 164.400 C 317.960 164.400,317.600 164.220,317.600 164.000 C 317.600 163.780,317.240 163.600,316.800 163.600 C 316.360 163.600,316.000 163.420,316.000 163.200 C 316.000 162.980,315.640 162.800,315.200 162.800 C 314.760 162.800,314.400 162.653,314.400 162.472 C 314.400 162.292,313.500 161.900,312.400 161.600 C 311.300 161.300,310.400 160.908,310.400 160.728 C 310.400 160.547,310.068 160.400,309.661 160.400 C 309.255 160.400,308.365 160.121,307.682 159.781 C 306.347 159.115,305.345 158.825,303.300 158.512 C 302.585 158.402,302.000 158.152,302.000 157.956 C 302.000 157.760,301.460 157.600,300.800 157.600 C 300.140 157.600,299.600 157.420,299.600 157.200 C 299.600 156.980,298.880 156.800,298.000 156.800 C 297.120 156.800,296.400 156.620,296.400 156.400 C 296.400 156.180,295.680 156.000,294.800 156.000 C 293.920 156.000,293.200 155.820,293.200 155.600 C 293.200 155.380,292.390 155.200,291.400 155.200 C 290.410 155.200,289.600 155.020,289.600 154.800 C 289.600 154.580,288.711 154.400,287.624 154.400 C 286.537 154.400,285.536 154.220,285.400 154.000 C 285.264 153.780,283.813 153.600,282.176 153.600 C 280.459 153.600,279.200 153.431,279.200 153.200 C 279.200 152.766,277.261 152.770,263.600 153.232 M196.801 210.207 C 197.859 210.747,198.677 211.622,199.500 213.095 C 199.892 213.795,200.000 223.654,200.000 258.595 L 200.000 303.200 202.300 303.219 C 206.641 303.255,209.201 305.534,209.199 309.359 C 209.196 313.235,206.549 315.600,202.216 315.600 L 200.000 315.600 200.000 325.941 C 200.000 337.775,199.908 338.134,196.412 339.900 C 194.180 341.028,193.021 341.025,191.012 339.887 C 187.682 338.002,187.600 337.665,187.600 325.941 L 187.600 315.600 185.261 315.600 C 182.658 315.600,180.826 314.868,179.633 313.351 C 176.063 308.813,179.176 303.200,185.261 303.200 L 187.600 303.200 187.600 258.580 C 187.600 221.153,187.690 213.786,188.159 212.879 C 189.786 209.733,193.576 208.561,196.801 210.207 M340.400 210.210 C 340.950 210.493,341.850 211.206,342.400 211.794 L 343.400 212.864 343.505 258.032 L 343.610 303.200 346.051 303.200 C 349.272 303.200,351.274 304.294,352.387 306.662 C 354.571 311.309,351.536 315.600,346.064 315.600 L 343.637 315.600 343.518 326.300 C 343.384 338.419,343.385 338.416,340.104 339.988 C 337.938 341.026,336.986 341.010,334.786 339.900 C 331.367 338.174,331.182 337.422,331.299 325.700 L 331.400 315.599 329.054 315.600 C 323.551 315.600,320.443 311.020,322.805 306.389 C 323.877 304.289,326.020 303.200,329.084 303.200 L 331.400 303.200 331.297 258.741 L 331.193 214.282 332.209 212.548 C 334.013 209.471,337.194 208.563,340.400 210.210 M242.908 210.665 C 247.247 213.395,251.181 219.018,252.601 224.520 C 253.371 227.501,253.512 274.000,252.751 274.000 C 252.420 274.000,252.421 274.143,252.754 274.544 C 253.082 274.940,253.177 283.142,253.103 304.644 L 253.000 334.200 240.600 334.200 L 228.200 334.200 228.097 312.500 L 227.993 290.800 234.297 290.711 L 240.600 290.622 234.268 290.501 L 227.937 290.379 228.138 282.890 C 228.248 278.770,228.326 275.220,228.309 275.000 C 227.968 270.333,228.061 228.719,228.418 226.430 C 229.271 220.955,232.907 214.519,236.557 212.023 C 237.020 211.706,237.490 211.327,237.600 211.181 C 237.920 210.758,240.152 209.634,240.708 209.616 C 240.987 209.607,241.977 210.079,242.908 210.665 M292.908 210.665 C 297.247 213.395,301.181 219.018,302.601 224.520 C 303.371 227.501,303.512 274.000,302.751 274.000 C 302.420 274.000,302.421 274.143,302.754 274.544 C 303.082 274.940,303.177 283.142,303.103 304.644 L 303.000 334.200 290.600 334.200 L 278.200 334.200 278.097 312.500 L 277.993 290.800 284.297 290.711 L 290.600 290.622 284.268 290.501 L 277.937 290.379 278.138 282.890 C 278.248 278.770,278.326 275.220,278.309 275.000 C 277.968 270.333,278.061 228.719,278.418 226.430 C 279.271 220.955,282.907 214.519,286.557 212.023 C 287.020 211.706,287.490 211.327,287.600 211.181 C 287.920 210.758,290.152 209.634,290.708 209.616 C 290.987 209.607,291.977 210.079,292.908 210.665 " stroke="none" fill="#8df5fb" fill-rule="evenodd"></path><path id="path1" d="M22.400 28.000 C 22.400 28.220,21.860 28.400,21.200 28.400 C 20.540 28.400,20.000 28.580,20.000 28.800 C 20.000 29.020,19.640 29.200,19.200 29.200 C 18.760 29.200,18.400 29.380,18.400 29.600 C 18.400 29.820,18.150 30.000,17.845 30.000 C 17.122 30.000,11.200 35.922,11.200 36.645 C 11.200 36.950,11.020 37.200,10.800 37.200 C 10.580 37.200,10.400 37.472,10.400 37.805 C 10.400 38.138,10.242 38.723,10.049 39.105 C 9.856 39.487,9.496 40.443,9.249 41.228 C 8.920 42.274,8.802 82.347,8.806 190.828 C 8.812 341.517,8.807 340.940,10.126 342.259 C 10.277 342.410,10.400 342.863,10.400 343.267 C 10.400 343.670,10.580 344.000,10.800 344.000 C 11.020 344.000,11.200 344.261,11.200 344.581 C 11.200 345.337,17.063 351.200,17.819 351.200 C 18.139 351.200,18.400 351.380,18.400 351.600 C 18.400 351.820,18.760 352.000,19.200 352.000 C 19.640 352.000,20.000 352.180,20.000 352.400 C 20.000 352.620,20.540 352.800,21.200 352.800 C 21.860 352.800,22.400 352.980,22.400 353.200 C 22.400 353.465,48.733 353.600,100.600 353.600 C 158.574 353.600,178.800 353.483,178.800 353.147 C 178.800 352.898,178.474 352.403,178.076 352.047 C 176.746 350.858,168.800 341.076,168.800 340.627 C 168.800 340.506,168.172 339.585,167.405 338.580 C 165.905 336.614,163.700 333.019,162.021 329.800 L 160.977 327.800 97.689 327.901 L 34.400 328.002 34.400 190.601 L 34.400 53.200 53.100 53.201 L 71.800 53.202 71.665 50.572 C 71.305 43.588,73.193 38.058,77.400 33.771 C 79.783 31.343,84.138 28.800,85.914 28.800 C 86.354 28.800,86.818 28.530,86.945 28.200 C 87.148 27.670,83.412 27.600,54.787 27.600 C 33.462 27.600,22.400 27.737,22.400 28.000 M194.298 28.058 C 194.550 28.310,195.685 28.843,196.819 29.243 C 201.712 30.966,205.441 34.489,208.004 39.808 L 209.600 43.121 209.600 48.161 L 209.600 53.200 228.200 53.200 L 246.800 53.200 246.800 104.024 C 246.800 134.029,246.947 154.756,247.160 154.625 C 247.958 154.132,255.872 153.475,263.800 153.245 L 272.200 153.000 272.301 97.100 C 272.369 59.903,272.268 41.200,272.001 41.200 C 271.781 41.200,271.600 40.660,271.600 40.000 C 271.600 39.340,271.420 38.800,271.200 38.800 C 270.980 38.800,270.800 38.440,270.800 38.000 C 270.800 37.560,270.620 37.200,270.400 37.200 C 270.180 37.200,270.000 36.939,270.000 36.619 C 270.000 35.863,264.137 30.000,263.381 30.000 C 263.061 30.000,262.800 29.820,262.800 29.600 C 262.800 29.380,262.440 29.200,262.000 29.200 C 261.560 29.200,261.200 29.020,261.200 28.800 C 261.200 28.580,260.660 28.400,260.000 28.400 C 259.340 28.400,258.800 28.220,258.800 28.000 C 258.800 27.737,247.707 27.600,226.320 27.600 C 201.917 27.600,193.954 27.714,194.298 28.058 M191.874 209.775 C 191.034 210.077,189.981 210.656,189.533 211.061 C 187.516 212.886,187.600 210.821,187.600 258.580 L 187.600 303.200 193.800 303.200 L 200.000 303.200 200.000 258.595 C 200.000 212.218,200.043 213.490,198.401 211.459 C 197.001 209.728,194.091 208.977,191.874 209.775 M335.977 209.575 C 334.046 210.169,333.224 210.817,332.211 212.545 L 331.196 214.276 331.298 258.638 L 331.400 303.000 337.505 303.110 L 343.610 303.221 343.505 258.043 L 343.400 212.864 342.400 211.794 C 340.627 209.897,337.944 208.970,335.977 209.575 M239.000 210.274 C 238.340 210.627,237.710 211.036,237.600 211.181 C 237.490 211.327,237.020 211.706,236.557 212.023 C 233.030 214.435,229.359 220.817,228.417 226.173 C 227.968 228.729,227.812 273.045,228.248 274.182 C 228.427 274.647,228.755 274.272,229.415 272.846 C 230.933 269.571,233.644 267.305,237.560 266.040 C 239.190 265.513,243.731 265.458,244.705 265.953 C 245.087 266.148,245.940 266.553,246.600 266.853 C 248.375 267.662,251.420 270.846,252.029 272.530 C 252.321 273.338,252.705 274.000,252.880 274.000 C 253.526 274.000,253.262 227.078,252.601 224.520 C 251.181 219.018,247.247 213.395,242.908 210.665 C 240.955 209.436,240.628 209.403,239.000 210.274 M289.000 210.274 C 288.340 210.627,287.710 211.036,287.600 211.181 C 287.490 211.327,287.020 211.706,286.557 212.023 C 283.030 214.435,279.359 220.817,278.417 226.173 C 277.968 228.729,277.812 273.045,278.248 274.182 C 278.427 274.647,278.755 274.272,279.415 272.846 C 280.933 269.571,283.644 267.305,287.560 266.040 C 289.190 265.513,293.731 265.458,294.705 265.953 C 295.087 266.148,295.940 266.553,296.600 266.853 C 298.375 267.662,301.420 270.846,302.029 272.530 C 302.321 273.338,302.705 274.000,302.880 274.000 C 303.526 274.000,303.262 227.078,302.601 224.520 C 301.181 219.018,297.247 213.395,292.908 210.665 C 290.955 209.436,290.628 209.403,289.000 210.274 M146.940 268.400 C 146.940 270.270,147.009 271.035,147.093 270.100 C 147.177 269.165,147.177 267.635,147.093 266.700 C 147.009 265.765,146.940 266.530,146.940 268.400 M228.097 312.500 L 228.200 334.200 240.600 334.200 L 253.000 334.200 253.103 312.500 L 253.207 290.800 240.600 290.800 L 227.993 290.800 228.097 312.500 M278.097 312.500 L 278.200 334.200 290.600 334.200 L 303.000 334.200 303.103 312.500 L 303.207 290.800 290.600 290.800 L 277.993 290.800 278.097 312.500 M187.600 325.941 C 187.600 337.665,187.682 338.002,191.012 339.887 C 193.021 341.025,194.180 341.028,196.412 339.900 C 199.908 338.134,200.000 337.775,200.000 325.941 L 200.000 315.600 193.800 315.600 L 187.600 315.600 187.600 325.941 M331.467 315.867 C 330.644 316.689,331.214 335.801,332.108 337.400 C 333.764 340.360,337.085 341.434,340.104 339.988 C 343.385 338.416,343.384 338.419,343.518 326.300 L 343.637 315.600 337.685 315.600 C 334.412 315.600,331.613 315.720,331.467 315.867 " stroke="none" fill="#e6f7fb" fill-rule="evenodd"></path><path id="path2" d="M179.200 4.704 C 179.200 4.871,179.560 5.232,180.000 5.507 C 180.930 6.088,181.054 5.797,180.229 4.971 C 179.598 4.341,179.200 4.237,179.200 4.704 M124.120 16.365 C 119.506 17.938,115.600 22.979,115.600 27.362 C 115.600 27.941,118.785 28.000,150.200 28.000 L 184.800 28.000 184.800 21.800 L 184.800 15.600 155.500 15.628 C 128.547 15.654,126.033 15.713,124.120 16.365 M104.186 41.389 C 95.493 44.140,90.814 50.894,90.804 60.700 L 90.800 65.200 150.013 65.200 L 209.226 65.200 209.078 54.700 C 208.996 48.925,208.763 43.480,208.558 42.600 L 208.186 41.000 156.993 40.939 C 116.425 40.890,105.465 40.984,104.186 41.389 M94.600 91.626 C 93.649 92.097,88.781 96.634,82.597 102.810 C 76.876 108.524,72.074 113.200,71.928 113.200 C 71.781 113.200,69.533 111.142,66.932 108.626 C 61.903 103.762,61.027 103.289,58.005 103.799 C 55.342 104.249,53.800 106.309,53.800 109.418 L 53.800 111.992 61.396 119.596 C 65.574 123.778,69.221 127.200,69.501 127.200 C 69.782 127.200,70.353 127.414,70.772 127.675 C 72.794 128.938,74.239 127.811,87.748 114.428 C 100.577 101.720,102.800 99.167,102.800 97.141 C 102.800 94.934,100.603 91.600,99.149 91.600 C 98.763 91.600,98.336 91.420,98.200 91.200 C 97.817 90.581,96.359 90.753,94.600 91.626 M126.155 103.872 C 122.286 104.647,121.167 110.655,124.322 113.717 L 125.644 115.000 174.922 115.000 C 230.772 115.000,225.448 115.336,227.188 111.704 C 228.406 109.162,227.650 106.338,225.288 104.600 C 224.268 103.850,129.730 103.156,126.155 103.872 M94.600 147.807 C 93.940 148.104,88.721 153.040,83.003 158.774 C 77.284 164.508,72.350 169.200,72.037 169.200 C 71.724 169.200,69.472 167.264,67.034 164.899 C 60.976 159.022,58.506 158.355,55.166 161.696 C 51.758 165.104,52.704 167.241,61.532 176.068 C 72.658 187.195,70.739 187.628,88.390 170.004 C 103.615 154.802,103.863 154.448,101.981 150.562 C 100.657 147.826,97.319 146.580,94.600 147.807 M125.508 160.528 C 122.034 162.558,121.266 166.599,123.795 169.535 C 125.626 171.661,124.432 171.600,164.244 171.600 L 201.191 171.600 205.102 169.300 C 207.254 168.035,210.811 166.128,213.007 165.061 C 215.203 163.995,217.692 162.780,218.538 162.361 C 219.384 161.943,220.241 161.600,220.442 161.600 C 220.644 161.600,221.572 161.252,222.504 160.828 C 223.437 160.403,224.560 159.974,225.000 159.874 C 225.440 159.774,203.570 159.684,176.400 159.674 L 127.000 159.655 125.508 160.528 M94.854 203.888 C 94.286 203.996,89.591 208.374,83.115 214.834 C 77.178 220.755,72.111 225.600,71.853 225.600 C 71.596 225.600,69.588 223.787,67.392 221.571 C 61.192 215.313,57.393 214.386,54.719 218.477 C 52.201 222.328,52.849 223.677,61.225 232.036 C 69.648 240.442,71.061 241.288,74.120 239.761 C 75.887 238.879,101.072 213.750,102.027 211.916 C 104.420 207.321,100.410 202.835,94.854 203.888 M125.797 216.594 C 121.105 218.657,121.119 224.958,125.820 227.168 C 127.506 227.960,128.249 228.000,141.206 228.000 L 154.820 228.000 155.234 226.900 C 155.631 225.846,156.707 223.468,158.537 219.600 C 159.006 218.610,159.495 217.710,159.624 217.600 C 159.753 217.490,159.975 217.085,160.117 216.700 C 160.460 215.770,127.899 215.670,125.797 216.594 M95.400 260.000 C 95.264 260.220,94.856 260.400,94.493 260.400 C 94.130 260.400,89.007 265.215,83.109 271.100 C 77.210 276.985,72.229 281.853,72.040 281.917 C 71.851 281.982,69.622 280.002,67.088 277.517 C 61.887 272.418,60.469 271.658,57.843 272.561 C 55.015 273.533,53.800 275.223,53.800 278.184 L 53.800 280.753 61.288 288.276 C 72.712 299.754,70.656 300.172,88.112 282.830 C 103.515 267.527,103.857 267.039,101.970 263.026 C 100.831 260.601,96.314 258.521,95.400 260.000 M240.800 278.200 L 240.800 290.400 246.800 290.400 L 252.800 290.400 252.794 283.500 C 252.784 272.698,250.508 268.411,243.754 266.472 C 240.550 265.553,240.800 264.559,240.800 278.200 M290.800 278.200 L 290.800 290.400 296.800 290.400 L 302.800 290.400 302.794 283.500 C 302.784 272.698,300.508 268.411,293.754 266.472 C 290.550 265.553,290.800 264.559,290.800 278.200 M126.400 272.592 C 122.314 274.064,121.002 278.874,123.823 282.038 C 125.417 283.828,126.576 284.000,136.998 284.000 L 146.821 284.000 146.711 278.100 L 146.600 272.200 137.200 272.144 C 130.518 272.104,127.395 272.234,126.400 272.592 " stroke="none" fill="#658c93" fill-rule="evenodd"></path><path id="path3" d="M34.400 190.600 L 34.400 328.000 97.633 328.000 C 132.412 328.000,160.804 327.865,160.728 327.700 C 160.652 327.535,159.718 325.600,158.652 323.400 C 155.736 317.381,152.919 309.897,151.199 303.600 C 150.928 302.610,150.567 301.350,150.396 300.800 C 150.225 300.250,149.872 298.720,149.610 297.400 C 149.348 296.080,148.984 294.280,148.801 293.400 C 148.617 292.520,148.238 290.135,147.957 288.100 L 147.447 284.400 137.108 284.400 C 123.867 284.400,122.003 283.635,122.003 278.200 C 122.003 272.716,123.670 272.003,136.500 272.001 L 146.800 272.000 146.800 269.368 C 146.800 265.693,148.003 254.395,148.841 250.200 C 150.239 243.202,150.897 240.718,153.215 233.690 C 154.106 230.989,154.726 228.604,154.594 228.390 C 154.445 228.149,148.982 227.999,140.276 227.999 C 126.936 227.997,126.132 227.955,124.896 227.202 C 120.953 224.798,121.075 218.766,125.113 216.497 C 126.697 215.607,126.833 215.600,143.854 215.600 L 161.000 215.599 162.170 213.500 C 169.581 200.198,181.790 186.358,194.400 176.962 C 197.150 174.912,199.760 172.966,200.200 172.636 C 200.913 172.101,196.995 172.034,164.096 172.018 C 127.850 172.000,127.160 171.985,125.462 171.187 C 120.756 168.975,120.834 162.501,125.597 160.096 L 127.387 159.191 177.855 159.205 C 209.776 159.213,228.668 159.074,229.262 158.828 C 229.778 158.613,232.000 157.968,234.200 157.394 C 240.001 155.880,240.697 155.719,243.900 155.145 L 246.800 154.626 246.800 103.913 L 246.800 53.200 228.210 53.200 L 209.621 53.200 209.510 59.300 L 209.400 65.400 140.700 65.501 L 72.000 65.602 72.000 59.401 L 72.000 53.200 53.200 53.200 L 34.400 53.200 34.400 190.600 M100.265 91.640 C 102.785 93.197,103.803 96.471,102.632 99.251 C 102.291 100.063,96.822 105.836,88.900 113.750 C 70.704 131.925,72.641 131.470,61.272 120.245 C 53.132 112.209,52.190 110.514,53.767 106.741 C 56.040 101.300,61.049 101.963,67.592 108.571 C 69.678 110.677,71.658 112.399,71.992 112.398 C 72.326 112.397,77.100 107.876,82.600 102.351 C 95.039 89.857,96.220 89.140,100.265 91.640 M225.104 103.998 C 229.056 106.407,228.997 112.507,225.000 114.841 C 223.875 115.498,220.746 115.543,175.092 115.571 L 126.384 115.600 124.803 114.602 C 120.906 112.142,121.014 106.287,125.000 103.959 C 126.998 102.793,223.188 102.830,225.104 103.998 M99.320 147.448 C 102.885 149.253,104.130 152.646,102.427 155.916 C 101.472 157.750,76.287 182.879,74.520 183.761 C 70.969 185.533,69.688 184.819,61.244 176.364 C 52.680 167.789,51.799 166.103,53.998 162.496 C 56.970 157.621,61.025 158.305,67.392 164.755 C 69.588 166.980,71.570 168.800,71.796 168.800 C 72.021 168.800,76.615 164.370,82.003 158.956 C 94.371 146.530,95.726 145.629,99.320 147.448 M99.998 204.047 C 103.058 205.767,104.039 209.534,102.217 212.565 C 101.676 213.464,95.421 219.969,88.317 227.021 C 70.900 244.308,72.639 243.930,61.482 232.861 C 52.661 224.112,51.886 222.646,54.047 218.802 C 56.668 214.138,61.321 214.609,66.663 220.078 C 68.018 221.465,69.777 223.224,70.573 223.988 L 72.019 225.375 82.542 214.858 C 95.233 202.173,95.914 201.752,99.998 204.047 M100.200 260.353 C 102.702 261.796,103.803 265.291,102.624 268.051 C 102.023 269.458,76.124 295.550,74.526 296.358 C 71.214 298.034,68.772 296.662,60.956 288.735 C 52.908 280.574,51.881 278.558,53.959 275.000 C 56.818 270.104,61.069 270.791,67.392 277.172 C 69.588 279.387,71.641 281.200,71.953 281.200 C 72.265 281.200,77.243 276.462,83.015 270.671 C 95.152 258.494,96.047 257.957,100.200 260.353 " stroke="none" fill="#fbf364" fill-rule="evenodd"></path><path id="path4" d="M104.800 3.200 C 104.800 3.420,104.474 3.600,104.075 3.600 C 103.677 3.600,102.964 3.960,102.492 4.400 C 102.020 4.840,101.345 5.200,100.993 5.200 C 100.641 5.200,100.464 5.380,100.600 5.600 C 100.736 5.820,100.597 6.000,100.291 6.000 C 99.985 6.000,99.480 6.495,99.168 7.100 C 98.855 7.705,98.312 8.520,97.960 8.911 C 96.721 10.287,96.400 12.601,96.400 20.146 L 96.400 27.600 91.800 27.600 C 88.142 27.600,87.200 27.714,87.200 28.155 C 87.200 28.480,86.580 28.827,85.708 28.991 C 82.102 29.667,76.705 33.751,74.592 37.400 C 72.272 41.406,72.000 43.238,72.000 54.867 L 72.000 65.602 140.700 65.501 L 209.400 65.400 209.524 55.400 C 209.663 44.159,209.463 42.622,207.337 38.618 C 204.889 34.008,198.397 28.800,195.099 28.800 C 194.701 28.800,194.289 28.575,194.183 28.300 C 194.031 27.903,185.886 27.829,154.796 27.939 C 118.175 28.069,115.600 28.034,115.600 27.401 C 115.600 24.423,118.046 20.041,120.836 18.020 C 124.210 15.576,123.864 15.600,155.762 15.600 L 184.800 15.600 184.800 13.400 C 184.800 12.190,184.665 11.199,184.500 11.197 C 184.190 11.194,183.200 9.297,183.200 8.707 C 183.200 8.378,181.682 6.842,179.240 4.700 C 178.551 4.095,177.539 3.600,176.993 3.600 C 176.447 3.600,176.000 3.420,176.000 3.200 C 176.000 2.936,163.867 2.800,140.400 2.800 C 116.933 2.800,104.800 2.936,104.800 3.200 M208.558 42.600 C 208.763 43.480,208.996 48.925,209.078 54.700 L 209.226 65.200 150.013 65.200 L 90.800 65.200 90.804 60.700 C 90.814 50.894,95.493 44.140,104.186 41.389 C 105.465 40.984,116.425 40.890,156.993 40.939 L 208.186 41.000 208.558 42.600 M93.800 91.555 C 93.140 91.968,88.100 96.826,82.600 102.351 C 77.100 107.876,72.326 112.397,71.992 112.398 C 71.658 112.399,69.678 110.678,67.592 108.573 C 65.506 106.468,63.440 104.564,63.000 104.342 C 62.560 104.120,64.329 106.022,66.930 108.569 C 69.532 111.116,71.781 113.200,71.928 113.200 C 72.074 113.200,76.876 108.524,82.597 102.810 C 88.781 96.634,93.649 92.097,94.600 91.626 C 95.480 91.189,95.930 90.825,95.600 90.817 C 95.270 90.809,94.460 91.141,93.800 91.555 M98.200 91.200 C 98.336 91.420,98.763 91.600,99.149 91.600 C 102.015 91.600,103.612 96.994,101.643 100.022 C 99.925 102.664,76.109 126.228,74.200 127.175 C 73.320 127.611,72.870 127.969,73.200 127.970 C 73.530 127.971,74.235 127.730,74.768 127.436 C 76.538 126.455,102.039 100.661,102.632 99.251 C 103.803 96.471,102.785 93.197,100.265 91.640 C 98.828 90.752,97.786 90.530,98.200 91.200 M57.338 103.506 C 57.084 103.668,58.012 103.800,59.400 103.800 C 60.788 103.800,61.716 103.668,61.462 103.506 C 61.208 103.344,60.280 103.212,59.400 103.212 C 58.520 103.212,57.592 103.344,57.338 103.506 M125.862 103.500 C 125.760 103.665,147.844 103.800,174.938 103.800 C 230.667 103.800,225.423 103.479,227.167 107.000 C 227.603 107.880,227.968 108.330,227.979 108.000 C 228.010 106.975,226.469 104.831,225.104 103.998 C 223.751 103.173,126.366 102.684,125.862 103.500 M54.801 104.998 C 54.286 105.548,53.952 106.086,54.061 106.194 C 54.169 106.303,54.774 105.854,55.404 105.196 C 56.034 104.538,56.367 104.000,56.145 104.000 C 55.922 104.000,55.317 104.449,54.801 104.998 M123.435 105.231 C 122.386 106.478,121.715 108.248,122.132 108.666 C 122.258 108.792,122.483 108.378,122.631 107.747 C 122.780 107.116,123.454 106.015,124.129 105.300 C 124.804 104.585,125.158 104.000,124.914 104.000 C 124.670 104.000,124.005 104.554,123.435 105.231 M53.443 107.433 C 53.108 108.305,53.149 110.900,53.506 111.462 C 53.668 111.716,53.800 110.771,53.800 109.362 C 53.800 106.551,53.794 106.518,53.443 107.433 M122.008 110.600 C 122.001 111.722,123.381 113.858,124.479 114.425 C 125.221 114.808,125.148 114.635,124.100 113.531 C 123.385 112.778,122.797 111.900,122.794 111.581 C 122.791 111.261,122.613 110.730,122.400 110.400 C 122.079 109.903,122.011 109.937,122.008 110.600 M227.285 111.527 C 227.061 112.170,226.367 113.169,225.743 113.748 C 225.119 114.326,224.815 114.800,225.069 114.800 C 225.652 114.800,227.460 112.670,227.809 111.572 C 228.224 110.264,227.740 110.223,227.285 111.527 M54.000 112.576 C 54.000 113.088,66.252 125.437,68.160 126.847 C 69.677 127.968,71.099 128.407,70.600 127.600 C 70.464 127.380,70.050 127.200,69.680 127.200 C 69.310 127.200,65.631 123.827,61.504 119.704 C 57.377 115.581,54.000 112.373,54.000 112.576 M125.862 115.300 C 126.104 115.692,223.896 115.692,224.138 115.300 C 224.240 115.135,202.128 115.000,175.000 115.000 C 147.872 115.000,125.760 115.135,125.862 115.300 M93.578 147.956 C 92.600 148.592,87.391 153.542,82.003 158.956 C 76.615 164.370,72.021 168.800,71.796 168.800 C 71.570 168.800,69.588 166.980,67.392 164.755 C 61.025 158.305,56.970 157.621,53.998 162.496 C 51.799 166.103,52.680 167.789,61.244 176.364 C 69.688 184.819,70.969 185.533,74.520 183.761 C 76.287 182.879,101.472 157.750,102.427 155.916 C 105.357 150.290,98.909 144.490,93.578 147.956 M99.386 148.035 C 100.710 148.658,101.372 149.302,101.981 150.562 C 103.863 154.448,103.615 154.802,88.390 170.004 C 70.739 187.628,72.658 187.195,61.532 176.068 C 52.704 167.241,51.758 165.104,55.166 161.696 C 58.506 158.355,60.976 159.022,67.034 164.899 C 69.472 167.264,71.724 169.200,72.037 169.200 C 72.350 169.200,77.284 164.508,83.003 158.774 C 95.203 146.540,95.621 146.266,99.386 148.035 M176.400 159.600 C 203.570 159.713,225.429 159.849,224.975 159.902 C 224.521 159.956,223.405 160.360,222.494 160.800 C 221.584 161.240,220.667 161.600,220.457 161.600 C 220.247 161.600,219.384 161.943,218.538 162.361 C 217.692 162.780,215.203 163.995,213.007 165.061 C 210.811 166.128,207.254 168.035,205.102 169.300 L 201.191 171.600 164.244 171.600 C 124.520 171.600,125.177 171.633,123.904 169.595 C 123.631 169.158,123.269 168.800,123.100 168.800 C 122.298 168.800,123.984 170.493,125.493 171.202 C 127.152 171.982,128.051 172.000,164.374 172.000 L 201.557 172.000 204.079 170.509 C 208.540 167.870,208.924 167.664,213.924 165.209 C 218.322 163.050,223.359 160.946,225.906 160.206 C 228.956 159.319,222.888 159.207,176.676 159.298 L 127.000 159.395 176.400 159.600 M124.896 160.398 C 123.424 161.296,121.989 163.401,122.032 164.600 C 122.054 165.200,122.178 165.099,122.530 164.200 C 123.379 162.031,123.954 161.313,125.386 160.633 C 126.729 159.996,127.159 159.598,126.500 159.601 C 126.335 159.602,125.613 159.961,124.896 160.398 M122.034 166.600 C 122.022 167.040,122.187 167.670,122.400 168.000 C 122.914 168.795,122.914 167.796,122.400 166.600 L 122.056 165.800 122.034 166.600 M94.611 203.583 C 94.466 203.816,95.119 203.884,96.287 203.757 C 100.882 203.255,104.132 207.874,102.027 211.916 C 101.072 213.750,75.887 238.879,74.120 239.761 C 71.059 241.289,69.651 240.444,61.194 232.005 C 57.237 228.057,54.000 224.962,54.000 225.127 C 54.000 225.293,57.285 228.690,61.300 232.676 C 72.668 243.961,70.871 244.337,88.317 227.021 C 103.989 211.465,104.651 210.491,102.353 206.402 C 100.965 203.931,95.602 201.979,94.611 203.583 M82.800 214.600 C 76.973 220.430,72.108 225.200,71.989 225.200 C 71.870 225.200,70.068 223.484,67.986 221.386 C 62.187 215.545,59.810 214.531,56.402 216.447 C 53.931 217.835,51.979 223.198,53.583 224.189 C 53.816 224.334,53.884 223.681,53.757 222.513 C 53.490 220.073,54.483 218.144,56.642 216.907 C 59.853 215.066,61.772 215.898,67.392 221.571 C 69.588 223.787,71.596 225.600,71.853 225.600 C 72.111 225.600,77.194 220.740,83.149 214.800 C 89.104 208.860,93.845 204.000,93.685 204.000 C 93.525 204.000,88.627 208.770,82.800 214.600 M124.944 216.600 C 124.034 217.146,123.167 217.909,123.019 218.296 C 122.823 218.805,123.059 218.716,123.874 217.975 C 126.025 216.018,126.209 216.000,143.806 216.000 C 161.123 216.000,161.460 216.034,159.624 217.600 C 159.363 217.822,158.316 219.982,156.424 224.200 C 155.733 225.740,154.993 227.315,154.780 227.700 C 154.534 228.146,154.533 228.400,154.778 228.400 C 154.989 228.400,155.462 227.725,155.829 226.900 C 157.506 223.125,158.577 220.828,159.645 218.716 C 160.280 217.460,160.800 216.245,160.800 216.016 C 160.800 215.734,155.284 215.601,143.700 215.604 L 126.600 215.608 124.944 216.600 M122.200 220.000 C 122.050 220.473,122.017 220.950,122.127 221.060 C 122.237 221.170,122.450 220.873,122.600 220.400 C 122.750 219.927,122.783 219.450,122.673 219.340 C 122.563 219.230,122.350 219.527,122.200 220.000 M122.032 223.000 C 121.966 224.822,125.041 228.033,126.800 227.979 C 127.130 227.968,126.629 227.586,125.687 227.130 C 123.968 226.296,123.402 225.627,122.530 223.400 C 122.178 222.501,122.054 222.400,122.032 223.000 M94.153 259.993 C 93.687 260.181,88.630 265.030,82.916 270.768 C 77.202 276.505,72.282 281.200,71.984 281.200 C 71.686 281.200,69.449 279.234,67.014 276.831 C 62.991 272.862,60.855 271.412,60.117 272.149 C 59.983 272.284,60.438 272.508,61.130 272.646 C 62.020 272.824,63.747 274.233,67.042 277.466 C 69.601 279.979,71.851 281.982,72.040 281.917 C 72.229 281.853,77.210 276.985,83.109 271.100 C 89.007 265.215,94.130 260.400,94.493 260.400 C 94.856 260.400,95.264 260.220,95.400 260.000 C 95.693 259.526,95.313 259.524,94.153 259.993 M99.470 260.450 C 102.372 261.858,103.464 265.176,102.012 268.176 C 100.773 270.735,75.391 295.829,73.671 296.194 C 72.941 296.349,72.437 296.571,72.553 296.686 C 73.619 297.752,101.136 271.551,102.626 268.051 C 104.077 264.643,101.511 259.526,98.400 259.621 C 98.070 259.632,98.552 260.005,99.470 260.450 M237.512 266.191 C 230.555 268.107,228.000 272.828,228.000 283.772 L 228.000 290.272 237.300 290.535 C 242.415 290.680,248.085 290.799,249.900 290.799 L 253.200 290.800 253.200 282.995 C 253.200 278.702,253.035 274.877,252.834 274.495 C 252.632 274.113,252.185 273.149,251.840 272.354 C 249.648 267.297,243.345 264.586,237.512 266.191 M287.512 266.191 C 280.555 268.107,278.000 272.828,278.000 283.772 L 278.000 290.272 287.300 290.535 C 292.415 290.680,298.085 290.799,299.900 290.799 L 303.200 290.800 303.200 282.995 C 303.200 278.702,303.035 274.877,302.834 274.495 C 302.632 274.113,302.185 273.149,301.840 272.354 C 299.648 267.297,293.345 264.586,287.512 266.191 M243.754 266.472 C 250.508 268.411,252.784 272.698,252.794 283.500 L 252.800 290.400 246.800 290.400 L 240.800 290.400 240.800 278.200 C 240.800 264.559,240.550 265.553,243.754 266.472 M293.754 266.472 C 300.508 268.411,302.784 272.698,302.794 283.500 L 302.800 290.400 296.800 290.400 L 290.800 290.400 290.800 278.200 C 290.800 264.559,290.550 265.553,293.754 266.472 M56.600 272.467 C 55.427 273.115,54.000 274.478,54.000 274.948 C 54.000 275.173,54.594 274.782,55.319 274.078 C 56.045 273.375,56.900 272.797,57.219 272.794 C 57.539 272.791,58.070 272.613,58.400 272.400 C 59.287 271.827,57.647 271.888,56.600 272.467 M124.896 272.798 C 123.426 273.694,121.990 275.798,122.029 277.000 C 122.050 277.684,122.114 277.655,122.468 276.800 C 123.606 274.055,124.055 273.606,126.800 272.468 C 127.655 272.114,127.684 272.050,127.000 272.029 C 126.560 272.015,125.613 272.361,124.896 272.798 M146.800 278.333 L 146.800 284.000 136.987 284.000 C 125.152 284.000,123.575 283.540,122.588 279.800 C 122.360 278.933,122.226 278.797,122.105 279.310 C 121.841 280.429,123.297 282.516,125.022 283.493 C 126.543 284.355,126.977 284.387,137.093 284.393 L 147.585 284.400 147.337 278.700 C 147.016 271.335,146.800 271.188,146.800 278.333 M53.467 275.867 C 53.107 276.226,53.138 279.683,53.506 280.262 C 53.668 280.516,53.800 279.571,53.800 278.162 C 53.800 276.753,53.785 275.600,53.767 275.600 C 53.748 275.600,53.613 275.720,53.467 275.867 M54.434 281.900 C 55.578 283.406,67.446 295.282,68.200 295.675 C 68.640 295.904,65.760 292.768,61.800 288.706 C 55.440 282.181,52.783 279.726,54.434 281.900 M69.600 296.400 C 69.930 296.613,70.470 296.788,70.800 296.788 C 71.333 296.788,71.333 296.745,70.800 296.400 C 70.470 296.187,69.930 296.012,69.600 296.012 C 69.067 296.012,69.067 296.055,69.600 296.400 M181.703 303.775 C 177.052 306.347,177.034 312.662,181.671 314.976 C 183.815 316.045,203.869 315.887,206.032 314.784 C 210.347 312.582,210.320 306.048,205.986 303.919 C 204.209 303.046,183.246 302.921,181.703 303.775 M325.104 304.025 C 321.046 306.168,321.051 312.420,325.113 314.703 C 326.658 315.571,327.058 315.600,337.600 315.600 C 350.181 315.600,350.831 315.448,352.387 312.138 C 353.846 309.034,352.861 305.656,350.033 304.066 C 347.760 302.789,327.509 302.756,325.104 304.025 " stroke="none" fill="#7ca4ac" fill-rule="evenodd"></path></g></svg>