<svg height="512" viewBox="0 0 64 64" width="512" xmlns="http://www.w3.org/2000/svg"><g id="Bluebooth"><path d="m7 61h28a4 4 0 0 0 4-4v-4a4 4 0 0 1 -4 4h-28a4 4 0 0 1 -4-4v4a4 4 0 0 0 4 4z" fill="#58595b"/><rect fill="#6d6e71" height="54" rx="4" width="36" x="3" y="3"/><path d="m36 8v41a2.006 2.006 0 0 1 -2 2h-26a2.006 2.006 0 0 1 -2-2v-41a2.006 2.006 0 0 1 2-2h5a2.006 2.006 0 0 1 2 2 2.006 2.006 0 0 0 2 2h8a2.006 2.006 0 0 0 2-2 2.006 2.006 0 0 1 2-2h5a2.006 2.006 0 0 1 2 2z" fill="#ffcd00"/><path d="m36 8a2.006 2.006 0 0 0 -2-2h-5.08a1.978 1.978 0 0 0 -1.92 2.041 2 2 0 0 1 -2 1.959h-8.079a1.978 1.978 0 0 1 -1.921-2.041 2 2 0 0 0 -2-1.959h-5a2.006 2.006 0 0 0 -2 2v37.974l30-37.692z" fill="#ffda44"/><g fill="#006df0"><rect height="30" rx="8" width="22" x="10" y="17"/><path d="m55.97 44.408a1 1 0 0 1 -.683-1.731 14.451 14.451 0 0 0 0-21.354 1 1 0 1 1 1.365-1.462 16.451 16.451 0 0 1 0 24.278 1 1 0 0 1 -.682.269z"/><path d="m52.24 41.484a1 1 0 0 1 -.682-1.731 10.453 10.453 0 0 0 0-15.506 1 1 0 1 1 1.365-1.462 12.453 12.453 0 0 1 0 18.43 1 1 0 0 1 -.683.269z"/><path d="m48.206 38.656a1 1 0 0 1 -.683-1.731 6.633 6.633 0 0 0 0-9.85 1 1 0 0 1 1.366-1.462 8.635 8.635 0 0 1 0 12.774 1 1 0 0 1 -.683.269z"/></g><path d="m28 27.045a1 1 0 0 0 -.292-.752l-6-6a1 1 0 0 0 -1.708.707v8.865l-4.359-3.633a1 1 0 1 0 -1.282 1.536l5.078 4.232-5.078 4.232a1 1 0 1 0 1.282 1.536l4.359-3.633v8.865a1 1 0 0 0 1.707.707l6-6a1 1 0 0 0 -.066-1.475l-5.079-4.232 5.079-4.232a1 1 0 0 0 .359-.723zm-2.48 10.022-3.52 3.519v-6.451zm-3.52-7.202v-6.451l3.519 3.519z" fill="#f1f2f2"/><path d="m44.854 28.44a1 1 0 1 0 -1.364 1.46 2.817 2.817 0 0 1 0 4.194 1 1 0 1 0 1.364 1.463 4.817 4.817 0 0 0 0-7.12z" fill="#006df0"/><path d="m18 6h2v2h-2z" fill="#f1f2f2"/><path d="m22 6h2v2h-2z" fill="#f1f2f2"/><path d="m18 53h6v2h-6z" fill="#f1f2f2"/></g></svg>