<svg id="svg" version="1.1" xmlns="http://www.w3.org/2000/svg" xmlns:xlink="http://www.w3.org/1999/xlink" width="400" height="400" viewBox="0, 0, 400,400"><g id="svgg"><path id="path0" d="M33.107 0.347 C 32.506 0.486,31.649 0.915,31.203 1.300 C 30.756 1.685,30.208 2.000,29.985 2.000 C 28.794 2.000,24.800 7.069,24.800 8.580 C 24.800 8.921,24.620 9.200,24.400 9.200 C 24.180 9.200,24.000 9.729,24.000 10.376 C 24.000 11.023,23.820 11.664,23.600 11.800 C 23.045 12.143,23.045 387.857,23.600 388.200 C 23.820 388.336,24.000 388.977,24.000 389.624 C 24.000 390.271,24.180 390.800,24.400 390.800 C 24.620 390.800,24.800 391.079,24.800 391.420 C 24.800 392.947,28.798 398.000,30.006 398.000 C 30.241 398.000,30.809 398.350,31.268 398.778 C 31.757 399.233,32.952 399.656,34.151 399.797 C 38.555 400.317,317.132 399.828,317.660 399.300 C 317.935 399.025,318.833 398.800,319.656 398.800 C 320.479 398.800,321.264 398.620,321.400 398.400 C 321.536 398.180,322.076 398.000,322.600 398.000 C 323.124 398.000,323.664 397.820,323.800 397.600 C 323.936 397.380,324.476 397.200,325.000 397.200 C 325.524 397.200,326.064 397.020,326.200 396.800 C 326.336 396.580,326.887 396.400,327.424 396.400 C 327.961 396.400,328.400 396.220,328.400 396.000 C 328.400 395.780,328.940 395.600,329.600 395.600 C 330.260 395.600,330.800 395.420,330.800 395.200 C 330.800 394.980,331.160 394.800,331.600 394.800 C 332.040 394.800,332.400 394.620,332.400 394.400 C 332.400 394.180,332.760 394.000,333.200 394.000 C 333.640 394.000,334.000 393.820,334.000 393.600 C 334.000 393.380,334.234 393.200,334.520 393.200 C 335.256 393.200,337.193 392.259,337.197 391.900 C 337.199 391.735,337.488 391.600,337.841 391.600 C 338.614 391.600,342.399 389.524,342.400 389.100 C 342.400 388.935,342.720 388.800,343.112 388.800 C 343.503 388.800,344.083 388.440,344.400 388.000 C 344.717 387.560,345.180 387.200,345.429 387.200 C 345.678 387.200,346.446 386.660,347.137 386.000 C 347.828 385.340,348.566 384.800,348.777 384.800 C 349.435 384.800,360.400 373.627,360.400 372.957 C 360.400 372.827,360.940 372.217,361.600 371.600 C 362.260 370.983,362.800 370.257,362.800 369.986 C 362.800 369.716,363.116 369.203,363.503 368.847 C 363.889 368.491,364.460 367.705,364.770 367.100 C 365.081 366.495,365.485 366.000,365.668 366.000 C 365.850 366.000,366.000 365.640,366.000 365.200 C 366.000 364.760,366.158 364.400,366.351 364.400 C 366.545 364.400,366.927 363.860,367.200 363.200 C 367.473 362.540,367.855 362.000,368.049 362.000 C 368.242 362.000,368.400 361.640,368.400 361.200 C 368.400 360.760,368.580 360.400,368.800 360.400 C 369.020 360.400,369.200 360.040,369.200 359.600 C 369.200 359.160,369.380 358.800,369.600 358.800 C 369.820 358.800,370.000 358.451,370.000 358.024 C 370.000 357.597,370.180 357.136,370.400 357.000 C 370.620 356.864,370.800 356.403,370.800 355.976 C 370.800 355.549,370.980 355.200,371.200 355.200 C 371.420 355.200,371.600 354.851,371.600 354.424 C 371.600 353.997,371.780 353.536,372.000 353.400 C 372.220 353.264,372.400 352.724,372.400 352.200 C 372.400 351.676,372.580 351.136,372.800 351.000 C 373.020 350.864,373.200 350.401,373.200 349.971 C 373.200 349.541,373.358 348.877,373.551 348.495 C 374.315 346.983,374.856 344.688,375.080 342.009 C 375.210 340.464,375.470 339.200,375.658 339.200 C 375.846 339.200,376.000 337.850,376.000 336.200 C 376.000 334.467,376.169 333.200,376.400 333.200 C 376.651 333.200,376.800 330.600,376.800 326.200 C 376.800 321.800,376.651 319.200,376.400 319.200 C 376.169 319.200,376.000 317.941,376.000 316.224 C 376.000 314.587,375.847 313.152,375.659 313.036 C 375.472 312.921,375.207 311.632,375.070 310.172 C 374.831 307.613,374.285 305.358,373.551 303.905 C 373.358 303.523,373.200 302.758,373.200 302.205 C 373.200 301.652,373.020 301.200,372.800 301.200 C 372.580 301.200,372.400 300.761,372.400 300.224 C 372.400 299.687,372.220 299.136,372.000 299.000 C 371.780 298.864,371.600 298.403,371.600 297.976 C 371.600 297.549,371.420 297.200,371.200 297.200 C 370.980 297.200,370.800 296.857,370.800 296.438 C 370.800 295.622,369.199 292.288,368.700 292.067 C 368.535 291.993,368.400 291.588,368.400 291.167 C 368.400 290.745,368.220 290.400,368.000 290.400 C 367.780 290.400,367.600 290.164,367.600 289.875 C 367.600 289.587,367.240 288.964,366.800 288.492 C 366.360 288.020,366.000 287.356,366.000 287.017 C 366.000 286.678,365.850 286.400,365.668 286.400 C 365.485 286.400,365.081 285.905,364.770 285.300 C 364.460 284.695,363.889 283.909,363.503 283.553 C 363.116 283.197,362.800 282.684,362.800 282.414 C 362.800 282.143,362.260 281.417,361.600 280.800 C 360.940 280.183,360.400 279.467,360.400 279.207 C 360.400 278.625,349.326 267.600,348.742 267.600 C 348.510 267.600,347.817 267.060,347.200 266.400 C 346.583 265.740,345.831 265.200,345.528 265.200 C 345.225 265.200,344.717 264.840,344.400 264.400 C 344.083 263.960,343.569 263.600,343.259 263.600 C 342.948 263.600,342.403 263.278,342.047 262.884 C 341.244 261.996,334.055 258.389,333.100 258.395 C 332.715 258.398,332.400 258.220,332.400 258.000 C 332.400 257.780,332.040 257.600,331.600 257.600 C 331.160 257.600,330.800 257.420,330.800 257.200 C 330.800 256.980,330.260 256.800,329.600 256.800 C 328.940 256.800,328.400 256.620,328.400 256.400 C 328.400 256.180,328.051 256.000,327.624 256.000 C 327.197 256.000,326.736 255.820,326.600 255.600 C 326.464 255.380,325.823 255.200,325.176 255.200 C 324.529 255.200,324.000 255.020,324.000 254.800 C 324.000 254.580,323.471 254.400,322.824 254.400 C 322.177 254.400,321.536 254.220,321.400 254.000 C 321.264 253.780,320.353 253.600,319.376 253.600 C 318.399 253.600,317.600 253.420,317.600 253.200 C 317.600 252.980,316.700 252.800,315.600 252.800 C 314.500 252.800,313.600 252.620,313.600 252.400 C 313.600 252.178,312.536 252.000,311.208 252.000 L 308.817 252.000 308.708 225.392 L 308.600 198.783 307.000 197.211 C 305.212 195.455,304.161 195.256,301.749 196.218 C 296.134 198.458,296.635 195.632,296.400 226.396 L 296.200 252.593 294.200 252.900 C 289.034 253.696,286.862 254.073,285.200 254.466 C 280.804 255.503,273.395 258.285,268.758 260.640 C 262.915 263.607,263.235 263.546,262.198 261.885 C 260.568 259.275,260.103 259.201,245.200 259.201 C 230.248 259.201,229.914 259.255,228.108 261.959 C 226.485 264.388,227.232 267.912,229.749 269.708 C 230.958 270.570,231.366 270.604,241.900 270.724 C 247.895 270.791,252.800 270.985,252.800 271.154 C 252.800 271.323,252.326 271.897,251.746 272.430 C 247.854 276.012,241.158 284.507,238.448 289.300 C 237.982 290.125,237.272 291.385,236.871 292.100 C 226.846 309.986,226.004 336.576,234.851 355.910 C 235.483 357.291,236.000 358.491,236.000 358.578 C 236.000 358.978,240.235 366.010,242.111 368.724 C 246.451 375.004,254.001 382.549,259.795 386.397 C 261.010 387.203,261.883 387.984,261.735 388.132 C 260.949 388.918,38.619 388.409,37.322 387.618 C 35.462 386.484,35.565 395.594,35.687 243.200 L 35.800 102.200 79.916 102.098 C 129.391 101.984,125.177 101.721,127.843 105.094 C 147.894 130.459,184.655 130.767,203.679 105.729 C 206.519 101.991,205.284 102.227,223.200 102.000 C 242.007 101.762,242.800 101.518,242.800 95.967 C 242.800 90.702,241.361 90.225,225.004 90.075 C 204.993 89.892,201.370 90.662,196.726 96.089 C 182.564 112.638,166.531 117.074,150.257 108.948 C 144.913 106.280,142.552 104.262,135.746 96.543 C 133.184 93.637,130.178 91.692,126.783 90.743 C 125.431 90.365,114.214 90.190,80.400 90.022 L 35.800 89.800 35.694 77.248 C 35.620 68.452,35.722 64.535,36.035 64.158 C 36.403 63.714,44.386 63.600,81.541 63.506 C 126.512 63.393,126.604 63.391,128.679 62.539 C 132.251 61.071,134.722 59.102,137.257 55.703 C 151.486 36.625,178.982 36.336,194.285 55.105 C 197.539 59.095,199.736 60.901,203.200 62.429 L 205.400 63.400 250.800 63.600 L 296.200 63.800 296.200 76.800 L 296.200 89.800 279.600 90.000 C 259.679 90.240,258.800 90.494,258.800 96.000 C 258.800 101.567,259.473 101.763,279.400 102.000 L 296.200 102.200 296.400 139.400 L 296.600 176.600 297.532 177.906 C 298.540 179.320,300.285 180.400,301.560 180.400 C 302.000 180.400,302.560 180.715,302.803 181.100 C 303.121 181.601,303.306 181.658,303.457 181.300 C 303.572 181.025,304.120 180.800,304.673 180.800 C 305.298 180.800,306.234 180.246,307.140 179.340 L 308.600 177.880 308.600 94.240 L 308.600 10.600 307.301 8.091 C 306.040 5.653,302.857 2.000,301.994 2.000 C 301.759 2.000,301.204 1.662,300.760 1.249 C 300.316 0.835,299.289 0.387,298.477 0.253 C 296.516 -0.071,34.514 0.022,33.107 0.347 M294.689 12.389 C 296.478 13.480,296.434 12.918,296.311 33.400 L 296.200 51.800 253.200 51.916 C 229.550 51.980,209.453 51.926,208.540 51.797 C 206.697 51.537,205.839 50.811,202.431 46.624 C 183.931 23.899,148.651 23.888,129.715 46.600 C 128.064 48.580,126.242 50.560,125.666 51.000 C 124.632 51.789,124.001 51.800,80.209 51.800 L 35.800 51.800 35.681 33.400 C 35.553 13.458,35.586 13.113,37.740 12.071 C 39.618 11.162,293.192 11.476,294.689 12.389 M148.896 71.998 C 148.179 72.435,147.235 73.379,146.798 74.096 C 145.193 76.728,146.148 80.327,148.896 82.002 C 150.655 83.075,180.768 83.251,182.799 82.200 C 186.519 80.277,187.191 75.804,184.193 72.931 L 182.386 71.200 166.293 71.201 C 150.940 71.203,150.140 71.240,148.896 71.998 M69.368 156.354 C 66.402 158.163,66.022 162.609,68.613 165.199 L 70.013 166.600 137.784 166.600 L 205.556 166.600 206.974 165.226 C 209.413 162.861,209.397 159.235,206.937 156.915 L 205.543 155.600 138.072 155.601 C 72.764 155.603,70.560 155.627,69.368 156.354 M229.768 156.354 C 226.572 158.303,226.391 162.794,229.394 165.600 L 230.464 166.600 245.200 166.600 L 259.936 166.600 261.006 165.600 C 264.027 162.777,263.722 157.918,260.416 156.208 C 258.443 155.188,231.470 155.316,229.768 156.354 M69.800 190.744 C 65.795 193.218,65.817 198.386,69.842 200.693 L 71.400 201.587 137.800 201.574 C 199.499 201.562,204.298 201.513,205.586 200.881 C 209.645 198.887,209.905 193.043,206.031 190.866 L 204.491 190.000 137.746 190.001 C 73.464 190.003,70.956 190.030,69.800 190.744 M230.096 190.798 C 226.246 193.145,226.294 198.332,230.187 200.614 L 231.870 201.600 245.116 201.600 C 258.756 201.600,259.597 201.514,261.341 199.935 C 264.161 197.382,263.645 192.835,260.304 190.798 C 258.289 189.570,232.111 189.570,230.096 190.798 M70.600 225.002 C 65.719 226.731,65.522 233.110,70.274 235.551 C 71.545 236.204,204.493 236.191,205.726 235.537 C 210.285 233.122,209.563 226.091,204.628 224.849 C 201.688 224.108,72.706 224.256,70.600 225.002 M231.358 224.832 C 226.584 226.218,225.809 232.588,230.096 235.202 C 232.111 236.430,258.289 236.430,260.304 235.202 C 264.714 232.513,263.802 226.201,258.800 224.797 C 257.051 224.307,233.065 224.337,231.358 224.832 M70.200 259.765 C 66.171 261.555,65.697 267.103,69.349 269.708 L 70.600 270.600 137.818 270.600 C 201.932 270.600,205.086 270.567,206.137 269.878 C 210.023 267.332,209.553 261.555,205.313 259.748 C 203.425 258.944,72.011 258.960,70.200 259.765 M309.800 264.596 C 317.860 265.675,321.824 266.846,329.358 270.370 C 345.341 277.847,358.508 294.065,362.529 311.227 C 364.013 317.563,364.197 319.210,364.197 326.200 C 364.197 333.190,364.013 334.837,362.529 341.173 C 351.738 387.229,292.945 403.914,259.000 370.552 C 216.917 329.191,251.621 256.807,309.800 264.596 M300.585 276.421 C 298.819 276.941,297.157 278.883,296.600 281.077 C 296.126 282.944,296.054 283.012,293.658 283.870 C 270.684 292.094,270.136 321.724,292.800 330.262 L 296.200 331.543 296.306 344.200 L 296.411 356.858 295.506 356.582 C 291.760 355.444,288.271 350.507,287.667 345.489 C 287.051 340.374,283.478 338.026,279.350 340.024 C 273.918 342.654,275.589 353.751,282.591 361.546 C 285.126 364.369,292.549 368.800,294.742 368.800 C 295.745 368.800,296.237 369.476,296.568 371.309 C 297.745 377.844,307.991 377.490,307.999 370.914 C 308.000 369.599,308.837 368.800,310.213 368.800 C 313.851 368.800,322.886 361.582,325.489 356.597 C 328.239 351.330,329.218 343.192,327.653 338.600 C 324.768 330.130,318.784 324.323,310.000 321.466 L 308.200 320.881 308.094 308.241 C 308.029 300.459,308.135 295.600,308.368 295.600 C 311.433 295.600,315.996 301.039,316.599 305.412 C 317.486 311.845,320.741 314.520,325.046 312.355 C 333.052 308.328,326.182 290.941,314.339 285.260 C 312.436 284.347,310.579 283.600,310.213 283.600 C 308.837 283.600,308.000 282.801,307.999 281.486 C 307.995 278.096,304.051 275.402,300.585 276.421 M70.600 294.200 C 64.970 296.203,65.788 303.954,71.760 305.191 C 76.222 306.115,203.947 305.533,205.763 304.580 C 209.648 302.542,209.784 296.813,206.000 294.614 C 204.150 293.538,73.581 293.139,70.600 294.200 M296.400 307.200 C 296.400 320.388,296.549 319.917,293.168 317.435 C 285.867 312.077,286.037 302.253,293.523 296.900 C 296.547 294.738,296.400 294.212,296.400 307.200 M70.200 328.965 C 65.838 330.904,65.735 337.110,70.028 339.299 C 72.154 340.383,203.434 340.383,205.592 339.299 C 209.991 337.089,209.823 330.870,205.313 328.948 C 203.425 328.144,72.011 328.160,70.200 328.965 M310.538 334.463 C 317.741 339.392,318.854 347.619,313.156 353.802 C 311.685 355.398,309.479 356.800,308.440 356.800 C 308.130 356.800,308.000 353.362,308.000 345.200 C 308.000 332.346,307.923 332.673,310.538 334.463 " stroke="none" fill="#050505" fill-rule="evenodd"></path><path id="path1" d="M294.800 264.608 C 239.060 272.167,220.458 342.630,265.400 375.975 C 300.840 402.269,352.556 383.739,362.529 341.173 C 364.013 334.837,364.197 333.190,364.197 326.200 C 364.197 319.210,364.013 317.563,362.529 311.227 C 358.114 292.382,344.011 276.278,325.000 268.373 C 316.310 264.759,304.520 263.290,294.800 264.608 M305.318 277.068 C 306.756 277.803,307.997 279.847,307.999 281.486 C 308.000 282.801,308.837 283.600,310.213 283.600 C 310.579 283.600,312.436 284.347,314.339 285.260 C 326.182 290.941,333.052 308.328,325.046 312.355 C 320.741 314.520,317.486 311.845,316.599 305.412 C 315.996 301.039,311.433 295.600,308.368 295.600 C 308.135 295.600,308.029 300.459,308.094 308.241 L 308.200 320.881 310.000 321.466 C 325.870 326.627,332.860 342.480,325.489 356.597 C 322.886 361.582,313.851 368.800,310.213 368.800 C 308.837 368.800,308.000 369.599,307.999 370.914 C 307.991 377.490,297.745 377.844,296.568 371.309 C 296.237 369.476,295.745 368.800,294.742 368.800 C 292.549 368.800,285.126 364.369,282.591 361.546 C 275.589 353.751,273.918 342.654,279.350 340.024 C 283.478 338.026,287.051 340.374,287.667 345.489 C 288.271 350.507,291.760 355.444,295.506 356.582 L 296.411 356.858 296.306 344.200 L 296.200 331.543 292.800 330.262 C 270.136 321.724,270.684 292.094,293.658 283.870 C 296.054 283.012,296.126 282.944,296.600 281.077 C 297.682 276.814,301.440 275.086,305.318 277.068 M293.523 296.900 C 286.037 302.253,285.867 312.077,293.168 317.435 C 296.549 319.917,296.400 320.388,296.400 307.200 C 296.400 294.212,296.547 294.738,293.523 296.900 M308.000 345.200 C 308.000 353.362,308.130 356.800,308.440 356.800 C 309.479 356.800,311.685 355.398,313.156 353.802 C 318.854 347.619,317.741 339.392,310.538 334.463 C 307.923 332.673,308.000 332.346,308.000 345.200 " stroke="none" fill="#f4d541" fill-rule="evenodd"></path><path id="path2" d="M102.100 11.900 C 137.245 11.956,194.755 11.956,229.900 11.900 C 265.045 11.844,236.290 11.798,166.000 11.798 C 95.710 11.798,66.955 11.844,102.100 11.900 M35.690 32.876 C 35.640 43.148,35.735 51.636,35.900 51.738 C 36.173 51.907,36.167 37.662,35.888 20.800 C 35.828 17.170,35.739 22.604,35.690 32.876 M165.305 29.487 C 165.914 29.579,166.814 29.577,167.305 29.482 C 167.797 29.387,167.300 29.311,166.200 29.314 C 165.100 29.317,164.697 29.395,165.305 29.487 M160.212 41.645 C 151.713 42.883,142.703 48.401,137.257 55.703 C 134.722 59.102,132.251 61.071,128.679 62.539 C 126.604 63.391,126.512 63.393,81.541 63.506 C 44.386 63.600,36.403 63.714,36.035 64.158 C 35.722 64.535,35.620 68.452,35.694 77.248 L 35.800 89.800 80.400 90.022 C 114.214 90.190,125.431 90.365,126.783 90.743 C 130.178 91.692,133.184 93.637,135.746 96.543 C 142.552 104.262,144.913 106.280,150.257 108.948 C 166.531 117.074,182.564 112.638,196.726 96.089 C 201.370 90.662,204.993 89.892,225.004 90.075 C 241.311 90.225,242.690 90.672,242.846 95.862 C 242.872 96.708,242.975 97.085,243.076 96.700 C 243.242 96.065,243.954 96.000,250.800 96.000 C 257.646 96.000,258.358 96.065,258.524 96.700 C 258.625 97.085,258.728 96.716,258.754 95.880 C 258.919 90.474,259.753 90.239,279.600 90.000 L 296.200 89.800 296.200 76.800 L 296.200 63.800 250.800 63.600 L 205.400 63.400 203.200 62.429 C 199.736 60.901,197.539 59.095,194.285 55.105 C 185.573 44.420,173.609 39.694,160.212 41.645 M184.193 72.931 C 186.467 75.110,186.768 77.918,184.979 80.263 C 183.019 82.832,183.262 82.800,165.920 82.799 C 148.360 82.797,148.582 82.830,146.798 79.904 C 145.193 77.272,146.148 73.673,148.896 71.998 C 150.140 71.240,150.940 71.203,166.293 71.201 L 182.386 71.200 184.193 72.931 M35.798 244.000 C 35.798 321.990,35.844 353.895,35.900 314.900 C 35.956 275.905,35.956 212.095,35.900 173.100 C 35.844 134.105,35.798 166.010,35.798 244.000 M200.975 108.900 L 199.800 110.200 201.100 109.025 C 201.815 108.379,202.400 107.794,202.400 107.725 C 202.400 107.416,202.070 107.688,200.975 108.900 M132.400 110.600 C 133.595 111.810,134.663 112.800,134.773 112.800 C 134.883 112.800,133.995 111.810,132.800 110.600 C 131.605 109.390,130.537 108.400,130.427 108.400 C 130.317 108.400,131.205 109.390,132.400 110.600 M197.375 112.500 L 196.200 113.800 197.500 112.625 C 198.712 111.530,198.984 111.200,198.675 111.200 C 198.606 111.200,198.021 111.785,197.375 112.500 M160.100 124.276 C 160.485 124.376,161.115 124.376,161.500 124.276 C 161.885 124.175,161.570 124.093,160.800 124.093 C 160.030 124.093,159.715 124.175,160.100 124.276 M170.500 124.276 C 170.885 124.376,171.515 124.376,171.900 124.276 C 172.285 124.175,171.970 124.093,171.200 124.093 C 170.430 124.093,170.115 124.175,170.500 124.276 M104.500 155.500 C 122.925 155.557,153.075 155.557,171.500 155.500 C 189.925 155.442,174.850 155.395,138.000 155.395 C 101.150 155.395,86.075 155.442,104.500 155.500 M238.300 155.499 C 242.095 155.565,248.305 155.565,252.100 155.499 C 255.895 155.434,252.790 155.380,245.200 155.380 C 237.610 155.380,234.505 155.434,238.300 155.499 M67.200 164.125 C 67.200 164.194,67.785 164.779,68.500 165.425 L 69.800 166.600 68.625 165.300 C 67.530 164.088,67.200 163.816,67.200 164.125 M206.975 165.300 L 205.800 166.600 207.100 165.425 C 207.815 164.779,208.400 164.194,208.400 164.125 C 208.400 163.816,208.070 164.088,206.975 165.300 M104.700 167.100 C 123.015 167.158,152.985 167.158,171.300 167.100 C 189.615 167.042,174.630 166.995,138.000 166.995 C 101.370 166.995,86.385 167.042,104.700 167.100 M238.500 167.099 C 242.185 167.165,248.215 167.165,251.900 167.099 C 255.585 167.033,252.570 166.979,245.200 166.979 C 237.830 166.979,234.815 167.033,238.500 167.099 M104.668 189.900 C 122.746 189.958,152.446 189.958,170.668 189.900 C 188.891 189.842,174.100 189.795,137.800 189.795 C 101.500 189.795,86.591 189.842,104.668 189.900 M238.700 189.899 C 242.275 189.966,248.125 189.966,251.700 189.899 C 255.275 189.833,252.350 189.779,245.200 189.779 C 238.050 189.779,235.125 189.833,238.700 189.899 M105.132 236.300 C 123.244 236.358,152.764 236.358,170.732 236.300 C 188.699 236.242,173.880 236.195,137.800 236.195 C 101.720 236.195,87.019 236.242,105.132 236.300 M238.900 236.299 C 242.365 236.366,248.035 236.366,251.500 236.299 C 254.965 236.233,252.130 236.178,245.200 236.178 C 238.270 236.178,235.435 236.233,238.900 236.299 M228.509 322.800 C 228.509 323.790,228.587 324.195,228.682 323.700 C 228.778 323.205,228.778 322.395,228.682 321.900 C 228.587 321.405,228.509 321.810,228.509 322.800 M228.514 329.400 C 228.517 330.500,228.595 330.903,228.687 330.295 C 228.779 329.686,228.777 328.786,228.682 328.295 C 228.587 327.803,228.511 328.300,228.514 329.400 M104.668 328.300 C 122.746 328.358,152.446 328.358,170.668 328.300 C 188.891 328.242,174.100 328.195,137.800 328.195 C 101.500 328.195,86.591 328.242,104.668 328.300 " stroke="none" fill="#fb5192" fill-rule="evenodd"></path><path id="path3" d="M62.254 13.856 C 62.114 14.877,62.000 23.697,62.000 33.456 L 62.000 51.200 93.014 51.200 C 128.305 51.200,125.287 51.511,127.996 47.600 C 130.152 44.488,137.981 37.200,139.169 37.200 C 139.406 37.200,139.600 37.055,139.600 36.879 C 139.600 36.702,140.497 36.117,141.594 35.579 C 142.690 35.040,143.590 34.465,143.594 34.300 C 143.597 34.135,143.835 34.000,144.121 34.000 C 144.408 34.000,145.574 33.536,146.713 32.969 C 156.219 28.231,170.163 27.615,181.527 31.430 C 185.623 32.805,192.400 36.198,192.400 36.874 C 192.400 37.053,192.625 37.200,192.900 37.200 C 193.175 37.201,193.887 37.606,194.482 38.100 C 195.077 38.595,196.427 39.711,197.482 40.581 C 198.537 41.450,200.480 43.420,201.800 44.958 C 203.120 46.496,204.968 48.530,205.907 49.477 L 207.614 51.200 251.807 51.200 L 296.000 51.200 295.987 32.900 C 295.977 17.772,295.877 14.471,295.410 13.854 C 293.925 11.894,300.650 12.000,177.609 12.000 L 62.509 12.000 62.254 13.856 M243.200 97.309 C 243.200 99.179,241.280 101.361,238.931 102.162 C 237.351 102.700,234.733 102.802,222.229 102.813 C 205.265 102.829,207.293 102.357,203.349 107.200 C 197.314 114.610,188.099 120.837,180.200 122.846 C 179.320 123.070,177.880 123.435,177.000 123.658 C 171.087 125.157,161.467 125.309,156.300 123.984 C 152.388 122.982,151.203 122.624,148.600 121.662 C 141.115 118.895,133.069 113.002,128.621 107.028 C 127.977 106.164,126.816 104.859,126.042 104.128 L 124.633 102.800 93.317 102.800 L 62.000 102.800 62.000 243.544 C 62.000 320.953,62.114 385.123,62.254 386.144 L 62.509 388.000 161.715 388.000 L 260.920 388.000 259.309 386.900 C 258.423 386.295,257.001 385.265,256.149 384.611 C 253.938 382.913,245.526 374.463,244.393 372.800 C 243.868 372.030,243.158 371.130,242.816 370.800 C 242.474 370.470,241.940 369.705,241.630 369.100 C 241.319 368.495,240.915 368.000,240.732 368.000 C 240.550 368.000,240.400 367.730,240.400 367.400 C 240.400 367.070,240.248 366.800,240.063 366.800 C 239.877 366.800,239.295 365.945,238.768 364.900 C 238.242 363.855,237.702 362.910,237.569 362.800 C 235.976 361.484,231.384 349.604,229.606 342.200 C 226.912 330.984,228.008 312.730,232.040 301.676 C 232.496 300.424,232.975 299.040,233.103 298.600 C 233.380 297.651,237.229 289.889,237.567 289.600 C 237.952 289.269,239.233 287.050,239.471 286.300 C 239.593 285.915,239.852 285.600,240.047 285.600 C 240.241 285.600,240.400 285.330,240.400 285.000 C 240.400 284.670,240.580 284.400,240.800 284.400 C 241.020 284.400,241.200 284.222,241.200 284.005 C 241.200 283.649,241.844 282.744,243.013 281.455 C 243.240 281.205,243.869 280.370,244.410 279.600 C 244.950 278.830,246.781 276.760,248.478 275.000 L 251.563 271.800 241.481 271.575 C 235.937 271.451,231.040 271.200,230.600 271.017 C 229.177 270.425,227.200 268.277,227.200 267.322 C 227.200 266.815,227.020 266.400,226.800 266.400 C 226.580 266.400,226.400 265.781,226.400 265.024 C 226.400 264.267,226.580 263.536,226.800 263.400 C 227.020 263.264,227.200 262.832,227.200 262.441 C 227.200 261.611,229.704 259.200,230.566 259.200 C 230.889 259.200,231.264 259.020,231.400 258.800 C 231.557 258.546,236.596 258.400,245.200 258.400 C 253.804 258.400,258.843 258.546,259.000 258.800 C 259.136 259.020,259.552 259.200,259.924 259.200 C 260.708 259.201,262.800 260.890,262.800 261.523 C 262.800 262.566,263.890 262.370,267.131 260.746 C 269.039 259.790,270.660 258.871,270.733 258.704 C 270.807 258.537,271.124 258.400,271.439 258.400 C 271.753 258.400,272.323 258.241,272.705 258.047 C 273.087 257.852,273.940 257.471,274.600 257.200 C 275.260 256.929,276.113 256.548,276.495 256.353 C 276.877 256.159,277.541 256.000,277.971 256.000 C 278.401 256.000,278.864 255.820,279.000 255.600 C 279.136 255.380,279.676 255.200,280.200 255.200 C 280.724 255.200,281.264 255.020,281.400 254.800 C 281.536 254.580,282.166 254.400,282.800 254.400 C 283.434 254.400,284.064 254.220,284.200 254.000 C 284.336 253.780,285.146 253.600,286.000 253.600 C 286.854 253.600,287.651 253.442,287.770 253.249 C 287.889 253.055,289.025 252.786,290.294 252.650 C 291.562 252.513,293.365 252.293,294.300 252.159 L 296.000 251.916 296.000 226.138 C 296.000 197.881,295.893 199.171,298.416 197.048 C 299.101 196.471,300.083 196.000,300.598 196.000 C 302.819 196.000,302.800 196.065,302.800 188.571 C 302.800 181.044,302.725 180.800,300.423 180.800 C 299.430 180.800,297.340 179.025,296.560 177.520 C 296.092 176.617,296.000 170.392,296.000 139.620 L 296.000 102.800 280.406 102.800 C 269.248 102.800,264.283 102.659,262.954 102.303 C 260.572 101.666,258.400 99.293,258.400 97.328 L 258.400 96.000 250.800 96.000 L 243.200 96.000 243.200 97.309 M204.200 154.800 C 204.336 155.020,204.801 155.200,205.234 155.200 C 206.265 155.200,208.800 157.521,208.800 158.464 C 208.800 158.869,208.980 159.200,209.200 159.200 C 210.369 159.200,209.261 163.868,207.650 165.733 C 205.970 167.676,208.832 167.600,137.770 167.600 C 68.502 167.600,70.271 167.641,68.268 166.000 C 64.722 163.096,66.261 155.200,70.373 155.200 C 70.802 155.200,71.264 155.020,71.400 154.800 C 71.563 154.536,94.130 154.400,137.800 154.400 C 181.470 154.400,204.037 154.536,204.200 154.800 M258.600 154.800 C 258.736 155.020,259.135 155.200,259.486 155.200 C 260.375 155.200,262.800 157.117,262.800 157.820 C 262.800 158.139,262.980 158.400,263.200 158.400 C 263.427 158.400,263.600 159.574,263.600 161.122 C 263.600 163.979,261.946 166.800,260.270 166.800 C 259.927 166.800,259.536 166.980,259.400 167.200 C 259.243 167.454,254.108 167.600,245.312 167.600 L 231.470 167.600 229.820 166.633 C 228.913 166.101,227.931 165.156,227.639 164.533 C 227.346 163.910,226.948 163.087,226.753 162.705 C 226.278 161.772,226.305 160.106,226.800 159.800 C 227.020 159.664,227.200 159.197,227.200 158.763 C 227.200 157.782,229.720 155.202,230.687 155.194 C 231.079 155.191,231.670 155.013,232.000 154.800 C 232.823 154.268,258.271 154.268,258.600 154.800 M207.322 190.954 C 208.135 191.699,208.800 192.588,208.800 192.930 C 208.800 193.273,208.980 193.664,209.200 193.800 C 210.645 194.693,208.892 199.588,206.585 201.100 L 205.211 202.000 137.697 202.000 L 70.182 202.000 68.681 200.762 C 67.056 199.423,66.000 197.375,66.000 195.563 C 66.000 193.815,68.097 190.400,69.171 190.400 C 69.407 190.400,69.600 190.220,69.600 190.000 C 69.600 189.735,92.574 189.600,137.722 189.600 L 205.844 189.600 207.322 190.954 M261.881 191.420 C 264.486 194.178,264.459 197.562,261.811 200.211 L 260.021 202.000 245.283 202.000 L 230.544 202.000 228.872 200.569 C 227.785 199.638,227.200 198.807,227.200 198.192 C 227.200 197.673,227.020 197.136,226.800 197.000 C 226.580 196.864,226.400 196.234,226.400 195.600 C 226.400 194.966,226.580 194.336,226.800 194.200 C 227.020 194.064,227.200 193.648,227.200 193.276 C 227.201 192.526,228.578 190.860,229.806 190.124 C 230.380 189.779,234.694 189.641,245.381 189.624 L 260.161 189.600 261.881 191.420 M206.323 224.853 C 207.203 225.323,208.141 226.178,208.408 226.753 C 208.675 227.329,209.052 228.113,209.247 228.495 C 209.726 229.436,209.695 231.894,209.200 232.200 C 208.980 232.336,208.800 232.739,208.800 233.095 C 208.800 234.243,206.090 236.339,204.272 236.597 C 199.185 237.320,70.202 236.601,69.084 235.843 C 64.872 232.988,65.197 227.067,69.703 224.575 C 70.406 224.186,85.088 224.070,137.662 224.039 L 204.724 224.000 206.323 224.853 M260.098 224.500 C 262.611 225.916,263.600 227.604,263.600 230.478 C 263.600 232.026,263.427 233.200,263.200 233.200 C 262.980 233.200,262.800 233.461,262.800 233.780 C 262.800 234.098,262.139 234.863,261.332 235.480 L 259.864 236.600 246.232 236.727 C 236.992 236.812,232.111 236.709,231.083 236.405 C 229.383 235.904,227.200 233.857,227.200 232.764 C 227.200 232.370,227.020 231.936,226.800 231.800 C 226.580 231.664,226.400 231.034,226.400 230.400 C 226.400 229.766,226.580 229.136,226.800 229.000 C 227.020 228.864,227.200 228.476,227.200 228.138 C 227.200 227.215,228.693 225.302,229.918 224.656 C 231.408 223.869,258.729 223.728,260.098 224.500 M204.800 258.800 C 204.800 259.020,205.115 259.204,205.500 259.209 C 207.293 259.232,209.600 262.610,209.600 265.212 C 209.600 266.085,209.420 266.800,209.200 266.800 C 208.980 266.800,208.800 267.139,208.800 267.553 C 208.800 268.836,206.479 270.717,204.326 271.178 C 201.655 271.751,74.588 271.767,71.571 271.194 C 65.744 270.090,63.996 262.018,69.067 259.639 C 69.690 259.347,70.470 258.959,70.800 258.777 C 71.696 258.284,204.800 258.307,204.800 258.800 M207.440 294.960 C 208.188 295.708,208.800 296.608,208.800 296.960 C 208.800 297.312,208.980 297.600,209.200 297.600 C 209.420 297.600,209.600 298.399,209.600 299.376 C 209.600 300.353,209.420 301.264,209.200 301.400 C 208.980 301.536,208.800 301.965,208.800 302.354 C 208.800 303.190,207.504 304.452,205.720 305.353 C 203.767 306.340,71.829 306.346,69.921 305.359 C 65.424 303.033,64.711 298.340,68.332 294.900 L 69.701 293.600 137.890 293.600 L 206.080 293.600 207.440 294.960 M206.090 328.500 C 207.398 329.244,207.873 329.750,208.779 331.363 C 209.625 332.869,209.909 336.000,209.200 336.000 C 208.980 336.000,208.800 336.325,208.800 336.722 C 208.800 337.790,206.436 339.800,204.554 340.334 C 202.187 341.004,73.410 341.003,71.046 340.333 C 65.550 338.773,64.301 332.079,68.919 328.925 L 70.200 328.050 137.705 328.025 C 191.011 328.005,205.396 328.105,206.090 328.500 " stroke="none" fill="#dbebfb" fill-rule="evenodd"></path><path id="path4" d="M37.050 12.832 L 35.992 13.664 36.096 32.732 L 36.200 51.800 77.200 51.920 C 99.750 51.987,119.723 51.922,121.585 51.777 L 124.971 51.514 127.185 49.091 C 138.621 36.578,144.549 32.893,157.963 29.962 C 160.802 29.342,171.200 29.338,174.000 29.955 C 178.909 31.038,179.932 31.329,183.000 32.517 C 191.219 35.696,198.290 40.946,203.796 47.954 C 207.159 52.234,201.722 51.784,251.640 51.913 C 288.804 52.009,295.551 51.941,295.944 51.467 C 296.285 51.057,296.379 46.131,296.300 32.954 L 296.192 15.000 296.096 33.100 L 296.000 51.200 251.807 51.200 L 207.614 51.200 205.907 49.477 C 204.968 48.530,203.120 46.496,201.800 44.958 C 200.480 43.420,198.537 41.450,197.482 40.581 C 196.427 39.711,195.077 38.595,194.482 38.100 C 193.887 37.606,193.175 37.201,192.900 37.200 C 192.625 37.200,192.400 37.053,192.400 36.874 C 192.400 36.198,185.623 32.805,181.527 31.430 C 170.163 27.615,156.219 28.231,146.713 32.969 C 145.574 33.536,144.408 34.000,144.121 34.000 C 143.835 34.000,143.597 34.135,143.594 34.300 C 143.590 34.465,142.690 35.040,141.594 35.579 C 140.497 36.117,139.600 36.702,139.600 36.879 C 139.600 37.055,139.406 37.200,139.169 37.200 C 137.981 37.200,130.152 44.488,127.996 47.600 C 125.287 51.511,128.308 51.200,92.990 51.200 L 61.952 51.200 62.076 31.600 L 62.200 12.000 50.154 12.000 C 38.559 12.000,38.068 12.031,37.050 12.832 M293.400 12.400 C 293.536 12.620,293.885 12.800,294.175 12.800 C 294.465 12.800,294.985 13.205,295.330 13.700 C 295.676 14.195,295.967 14.388,295.979 14.129 C 295.991 13.870,295.526 13.285,294.946 12.829 C 293.839 11.958,292.980 11.720,293.400 12.400 M242.698 98.006 C 242.551 98.559,241.785 99.639,240.994 100.406 L 239.557 101.800 223.678 102.000 C 205.863 102.224,207.047 102.012,204.158 105.495 C 197.190 113.895,190.026 119.090,181.600 121.852 C 180.390 122.249,179.689 122.633,180.043 122.705 C 183.902 123.494,197.381 114.527,203.349 107.200 C 207.293 102.358,205.244 102.832,222.400 102.792 C 235.489 102.761,237.624 102.670,239.158 102.078 C 241.135 101.316,243.358 98.880,243.119 97.741 C 242.992 97.137,242.914 97.186,242.698 98.006 M258.416 97.828 C 258.407 98.283,259.007 99.365,259.748 100.231 C 261.866 102.706,262.626 102.800,280.406 102.800 L 296.000 102.800 296.000 139.620 C 296.000 170.392,296.092 176.617,296.560 177.520 C 297.340 179.025,299.430 180.800,300.423 180.800 C 300.879 180.800,301.601 180.986,302.026 181.214 C 302.525 181.481,302.800 181.487,302.800 181.232 C 302.800 181.014,302.191 180.722,301.447 180.582 C 296.091 179.578,296.400 182.079,296.400 139.672 C 296.400 119.649,296.291 102.981,296.157 102.633 C 295.941 102.070,294.143 102.000,280.007 102.000 C 260.607 102.000,260.637 102.006,258.960 98.200 C 258.538 97.242,258.428 97.167,258.416 97.828 M36.099 244.257 L 36.200 386.514 37.329 387.357 L 38.459 388.200 149.129 388.310 C 209.998 388.370,260.232 388.315,260.760 388.187 C 261.687 387.963,261.667 387.920,260.160 386.907 C 256.034 384.136,250.038 378.710,245.672 373.795 C 244.373 372.333,243.895 371.945,244.446 372.800 C 245.477 374.402,253.826 382.828,256.149 384.611 C 257.001 385.265,258.423 386.295,259.309 386.900 L 260.920 388.000 161.715 388.000 L 62.509 388.000 62.254 386.144 C 62.114 385.123,62.000 320.953,62.000 243.544 L 62.000 102.800 93.317 102.800 L 124.633 102.800 126.042 104.128 C 126.816 104.859,127.977 106.164,128.621 107.028 C 133.614 113.733,148.717 123.828,152.079 122.707 C 152.345 122.618,151.582 122.225,150.382 121.834 C 142.656 119.315,132.828 112.221,128.170 105.800 C 125.213 101.724,128.825 102.005,79.299 102.002 L 35.999 102.000 36.099 244.257 M153.200 123.200 C 153.530 123.413,154.250 123.578,154.800 123.566 C 155.716 123.546,155.733 123.515,155.000 123.200 C 153.816 122.691,152.413 122.691,153.200 123.200 M177.200 123.200 C 176.703 123.521,176.738 123.588,177.400 123.588 C 177.840 123.588,178.470 123.413,178.800 123.200 C 179.297 122.879,179.262 122.812,178.600 122.812 C 178.160 122.812,177.530 122.987,177.200 123.200 M156.400 124.000 C 156.730 124.213,157.630 124.373,158.400 124.354 C 159.683 124.323,159.716 124.293,158.800 124.000 C 157.278 123.513,155.646 123.513,156.400 124.000 M173.200 124.000 C 172.284 124.293,172.317 124.323,173.600 124.354 C 174.370 124.373,175.270 124.213,175.600 124.000 C 176.354 123.513,174.722 123.513,173.200 124.000 M162.200 124.800 C 162.640 124.989,164.350 125.144,166.000 125.144 C 167.650 125.144,169.360 124.989,169.800 124.800 C 170.308 124.582,168.919 124.456,166.000 124.456 C 163.081 124.456,161.692 124.582,162.200 124.800 M71.400 154.800 C 71.264 155.020,70.802 155.200,70.373 155.200 C 66.261 155.200,64.722 163.096,68.268 166.000 C 70.271 167.641,68.502 167.600,137.770 167.600 C 210.363 167.600,206.091 167.737,207.963 165.356 C 209.177 163.812,208.992 163.310,207.752 164.784 C 205.579 167.366,210.382 167.200,138.011 167.200 C 89.887 167.200,71.753 167.077,70.760 166.746 C 66.615 165.360,65.271 160.468,68.149 157.248 C 70.077 155.092,66.405 155.200,138.011 155.200 C 182.200 155.200,204.364 155.066,204.200 154.800 C 204.037 154.536,181.470 154.400,137.800 154.400 C 94.130 154.400,71.563 154.536,71.400 154.800 M232.000 154.800 C 231.670 155.013,231.079 155.191,230.687 155.194 C 229.864 155.201,227.198 157.722,227.204 158.487 C 227.207 158.769,227.687 158.393,228.271 157.652 C 230.153 155.264,230.594 155.200,245.200 155.200 C 261.607 155.200,263.203 155.718,263.199 161.038 C 263.194 166.644,261.618 167.182,245.200 167.182 C 230.601 167.182,229.657 167.025,228.010 164.323 C 227.566 163.595,227.206 163.270,227.210 163.600 C 227.221 164.472,228.395 165.803,230.000 166.761 C 231.569 167.698,258.840 168.105,259.400 167.200 C 259.536 166.980,259.927 166.800,260.270 166.800 C 261.946 166.800,263.600 163.979,263.600 161.122 C 263.600 159.574,263.427 158.400,263.200 158.400 C 262.980 158.400,262.800 158.139,262.800 157.820 C 262.800 157.117,260.375 155.200,259.486 155.200 C 259.135 155.200,258.736 155.020,258.600 154.800 C 258.271 154.268,232.823 154.268,232.000 154.800 M205.951 155.884 C 206.695 156.250,207.639 157.101,208.050 157.775 C 208.487 158.492,208.798 158.736,208.799 158.364 C 208.800 157.530,206.222 155.197,205.311 155.209 C 204.877 155.215,205.126 155.477,205.951 155.884 M208.954 161.176 C 208.954 162.263,209.099 163.062,209.277 162.952 C 209.455 162.843,209.600 161.953,209.600 160.976 C 209.600 159.999,209.455 159.200,209.277 159.200 C 209.099 159.200,208.954 160.089,208.954 161.176 M226.667 159.867 C 226.253 160.280,226.353 162.323,226.800 162.600 C 227.042 162.749,227.200 162.204,227.200 161.224 C 227.200 159.566,227.134 159.399,226.667 159.867 M69.600 190.000 C 69.600 190.220,69.407 190.400,69.171 190.400 C 68.097 190.400,66.000 193.815,66.000 195.563 C 66.000 197.375,67.056 199.423,68.681 200.762 L 70.182 202.000 137.697 202.000 L 205.211 202.000 206.585 201.100 C 208.835 199.625,210.652 194.698,209.262 193.838 C 209.076 193.723,208.939 194.388,208.958 195.315 C 209.007 197.690,208.177 199.376,206.372 200.571 L 204.817 201.600 137.963 201.600 L 71.109 201.600 69.554 200.726 C 65.107 198.227,65.752 191.933,70.633 190.193 L 72.200 189.635 70.900 189.618 C 70.185 189.608,69.600 189.780,69.600 190.000 M205.000 190.199 C 205.880 190.508,207.095 191.349,207.700 192.066 C 208.305 192.783,208.800 193.131,208.800 192.839 C 208.800 191.819,205.920 189.599,204.622 189.618 C 203.429 189.635,203.438 189.648,205.000 190.199 M229.806 190.124 C 228.627 190.831,227.201 192.515,227.202 193.200 C 227.203 193.530,227.553 193.226,227.980 192.526 C 228.772 191.226,229.751 190.533,231.577 189.979 L 232.600 189.669 231.600 189.658 C 231.050 189.652,230.243 189.861,229.806 190.124 M259.304 190.172 C 264.267 191.943,264.693 198.573,259.999 201.000 C 259.035 201.499,256.538 201.600,245.200 201.600 C 230.189 201.600,230.206 201.602,228.240 199.108 C 227.527 198.204,227.208 198.007,227.204 198.469 C 227.202 198.837,227.952 199.782,228.872 200.569 L 230.544 202.000 245.283 202.000 L 260.021 202.000 261.811 200.211 C 265.227 196.794,263.292 189.553,258.981 189.618 C 257.825 189.635,257.832 189.647,259.304 190.172 M226.667 194.267 C 226.253 194.680,226.353 196.723,226.800 197.000 C 227.042 197.149,227.200 196.604,227.200 195.624 C 227.200 193.966,227.134 193.799,226.667 194.267 M298.416 197.048 C 295.893 199.171,296.000 197.881,296.000 226.138 L 296.000 251.916 294.300 252.159 C 293.365 252.293,291.562 252.513,290.294 252.650 C 289.025 252.786,287.889 253.055,287.770 253.249 C 287.651 253.442,286.854 253.600,286.000 253.600 C 285.146 253.600,284.336 253.780,284.200 254.000 C 284.064 254.220,283.434 254.400,282.800 254.400 C 282.166 254.400,281.536 254.580,281.400 254.800 C 281.264 255.020,280.724 255.200,280.200 255.200 C 279.676 255.200,279.136 255.380,279.000 255.600 C 278.864 255.820,278.401 256.000,277.971 256.000 C 277.541 256.000,276.877 256.159,276.495 256.353 C 276.113 256.548,275.260 256.929,274.600 257.200 C 273.940 257.471,273.087 257.852,272.705 258.047 C 272.323 258.241,271.738 258.400,271.405 258.400 C 271.072 258.400,270.800 258.599,270.800 258.843 C 270.800 259.112,271.074 259.168,271.500 258.985 C 278.061 256.171,286.947 253.597,292.174 252.997 C 293.480 252.847,294.965 252.566,295.474 252.372 L 296.400 252.020 296.400 226.304 C 296.400 197.166,296.234 198.693,299.605 196.910 C 300.810 196.273,301.076 196.000,300.494 196.000 C 300.036 196.000,299.101 196.471,298.416 197.048 M70.262 224.300 C 70.160 224.465,100.552 224.600,137.800 224.600 C 175.048 224.600,205.440 224.465,205.338 224.300 C 205.236 224.135,174.844 224.000,137.800 224.000 C 100.756 224.000,70.364 224.135,70.262 224.300 M229.918 224.656 C 228.864 225.212,227.196 227.183,227.204 227.862 C 227.207 228.048,227.687 227.593,228.271 226.852 C 230.154 224.462,230.586 224.400,245.287 224.401 C 261.565 224.401,263.200 224.938,263.200 230.279 C 263.200 235.688,261.938 236.172,247.400 236.334 C 231.834 236.508,230.798 236.398,228.764 234.364 C 226.954 232.554,226.616 232.870,228.383 234.720 C 230.326 236.752,231.326 236.865,246.232 236.727 L 259.864 236.600 261.332 235.480 C 262.139 234.863,262.800 234.098,262.800 233.780 C 262.800 233.461,262.980 233.200,263.200 233.200 C 263.427 233.200,263.600 232.026,263.600 230.478 C 263.600 227.604,262.611 225.916,260.098 224.500 C 258.729 223.728,231.408 223.869,229.918 224.656 M67.950 225.900 C 65.121 229.014,65.633 233.504,69.084 235.843 C 70.202 236.601,199.185 237.320,204.272 236.597 C 205.919 236.363,208.800 234.277,208.800 233.319 C 208.800 233.085,208.120 233.574,207.288 234.406 C 205.152 236.542,208.322 236.457,135.537 236.321 L 70.474 236.200 68.963 234.977 C 65.945 232.534,65.771 229.004,68.524 226.100 C 69.202 225.385,69.575 224.800,69.353 224.800 C 69.131 224.800,68.500 225.295,67.950 225.900 M207.222 226.296 C 207.980 227.118,208.645 227.868,208.700 227.962 C 208.755 228.056,208.800 227.858,208.800 227.521 C 208.800 226.828,206.913 224.800,206.267 224.800 C 206.034 224.800,206.463 225.473,207.222 226.296 M208.954 230.400 C 208.954 231.474,209.099 232.262,209.277 232.152 C 209.455 232.043,209.600 231.254,209.600 230.400 C 209.600 229.546,209.455 228.757,209.277 228.648 C 209.099 228.538,208.954 229.326,208.954 230.400 M226.667 229.067 C 226.253 229.480,226.353 231.523,226.800 231.800 C 227.042 231.949,227.200 231.404,227.200 230.424 C 227.200 228.766,227.134 228.599,226.667 229.067 M71.000 258.800 C 70.836 259.066,93.196 259.200,137.776 259.200 C 182.192 259.200,204.800 259.065,204.800 258.800 C 204.800 258.535,182.275 258.400,138.024 258.400 C 93.937 258.400,71.163 258.536,71.000 258.800 M231.400 258.800 C 231.237 259.064,235.937 259.200,245.200 259.200 C 254.463 259.200,259.163 259.064,259.000 258.800 C 258.843 258.546,253.804 258.400,245.200 258.400 C 236.596 258.400,231.557 258.546,231.400 258.800 M68.537 259.909 C 64.133 263.438,65.930 270.125,71.571 271.194 C 74.588 271.767,201.655 271.751,204.326 271.178 C 206.410 270.732,208.801 268.846,208.799 267.653 C 208.798 267.254,208.505 267.479,208.046 268.232 C 206.351 271.010,211.857 270.818,137.204 270.703 L 69.943 270.600 68.398 268.944 C 65.710 266.063,66.152 261.915,69.355 259.962 C 70.040 259.545,70.330 259.206,70.000 259.210 C 69.670 259.214,69.012 259.529,68.537 259.909 M205.800 259.650 C 206.240 259.884,207.095 260.637,207.700 261.323 C 208.305 262.009,208.800 262.365,208.800 262.116 C 208.800 261.409,206.417 259.199,205.669 259.212 C 205.121 259.222,205.145 259.302,205.800 259.650 M260.907 260.214 C 261.728 260.772,262.400 261.368,262.400 261.538 C 262.400 263.336,264.917 263.129,266.980 261.162 C 267.614 260.558,266.906 260.754,265.400 261.600 C 263.654 262.581,263.248 262.597,262.915 261.700 C 262.568 260.765,260.748 259.201,260.007 259.200 C 259.681 259.200,260.086 259.656,260.907 260.214 M268.670 259.879 C 268.048 260.205,267.626 260.560,267.733 260.666 C 267.942 260.876,270.400 259.700,270.400 259.390 C 270.400 259.092,269.894 259.235,268.670 259.879 M228.027 260.971 C 227.525 261.506,227.179 262.111,227.257 262.317 C 227.336 262.523,227.797 262.086,228.282 261.346 C 229.327 259.749,229.263 259.655,228.027 260.971 M208.954 264.824 C 208.954 265.911,209.099 266.800,209.277 266.800 C 209.455 266.800,209.600 266.001,209.600 265.024 C 209.600 264.047,209.455 263.157,209.277 263.048 C 209.099 262.938,208.954 263.737,208.954 264.824 M226.667 263.467 C 226.243 263.890,226.357 266.400,226.800 266.400 C 227.020 266.400,227.200 265.680,227.200 264.800 C 227.200 263.165,227.134 263.000,226.667 263.467 M227.200 267.737 C 227.200 268.349,229.486 270.554,230.600 271.017 C 231.040 271.200,235.937 271.451,241.481 271.575 L 251.563 271.800 248.478 275.000 C 246.781 276.760,244.975 278.830,244.465 279.600 C 243.955 280.370,244.587 279.836,245.869 278.413 C 247.151 276.990,249.171 274.865,250.358 273.691 C 253.256 270.824,253.356 270.856,241.070 270.719 L 230.341 270.600 228.771 268.915 C 227.907 267.989,227.200 267.459,227.200 267.737 M242.400 282.200 C 242.106 282.750,241.715 283.200,241.532 283.200 C 241.350 283.200,241.200 283.470,241.200 283.800 C 241.200 284.130,241.020 284.400,240.800 284.400 C 240.580 284.400,240.400 284.670,240.400 285.000 C 240.400 285.330,240.241 285.600,240.047 285.600 C 239.852 285.600,239.593 285.915,239.471 286.300 C 239.231 287.058,237.948 289.275,237.563 289.600 C 235.122 291.655,228.668 310.714,228.850 315.326 C 228.881 316.104,229.090 315.510,229.388 313.800 C 231.164 303.590,235.253 293.521,241.206 284.700 C 242.505 282.775,243.425 281.200,243.251 281.200 C 243.077 281.200,242.694 281.650,242.400 282.200 M68.332 294.900 C 64.711 298.340,65.424 303.033,69.921 305.359 C 71.829 306.346,203.767 306.340,205.720 305.353 C 207.392 304.508,208.800 303.204,208.800 302.500 C 208.800 302.191,208.328 302.499,207.752 303.184 C 205.579 305.767,210.403 305.600,137.800 305.600 C 66.408 305.600,70.129 305.710,68.149 303.535 C 65.532 300.658,66.275 296.522,69.800 294.344 C 70.544 293.885,70.753 293.602,70.350 293.601 C 69.993 293.601,69.085 294.185,68.332 294.900 M205.835 294.356 C 206.515 294.771,207.460 295.604,207.935 296.209 C 208.411 296.813,208.800 297.086,208.800 296.814 C 208.800 296.045,206.166 293.600,205.340 293.601 C 204.794 293.603,204.925 293.801,205.835 294.356 M208.954 299.576 C 208.954 300.663,209.099 301.462,209.277 301.352 C 209.455 301.243,209.600 300.353,209.600 299.376 C 209.600 298.399,209.455 297.600,209.277 297.600 C 209.099 297.600,208.954 298.489,208.954 299.576 M228.252 318.500 C 227.923 319.727,227.989 332.831,228.328 333.685 C 228.478 334.061,228.600 330.596,228.600 325.985 C 228.600 321.373,228.576 317.600,228.547 317.600 C 228.517 317.600,228.385 318.005,228.252 318.500 M68.919 328.925 C 66.464 330.602,65.432 333.641,66.425 336.274 C 66.964 337.705,69.164 340.004,69.978 339.988 C 70.442 339.979,70.396 339.859,69.800 339.520 C 65.148 336.869,65.635 330.461,70.627 328.633 C 71.893 328.169,72.005 328.056,71.200 328.053 C 70.650 328.051,69.624 328.444,68.919 328.925 M205.000 328.599 C 205.880 328.908,207.095 329.749,207.700 330.466 C 208.305 331.183,208.800 331.597,208.800 331.385 C 208.798 330.226,205.812 327.988,204.305 328.018 C 203.670 328.030,203.878 328.203,205.000 328.599 M208.954 334.024 C 208.954 335.111,209.099 336.000,209.277 336.000 C 209.455 336.000,209.600 335.201,209.600 334.224 C 209.600 333.247,209.455 332.357,209.277 332.248 C 209.099 332.138,208.954 332.937,208.954 334.024 M228.853 337.121 C 228.766 339.293,230.701 347.269,232.461 352.000 C 233.349 354.384,237.174 362.474,237.569 362.800 C 237.702 362.910,238.242 363.855,238.768 364.900 C 239.295 365.945,239.877 366.800,240.063 366.800 C 240.248 366.800,240.400 367.070,240.400 367.400 C 240.400 367.730,240.550 368.000,240.732 368.000 C 240.915 368.000,241.320 368.495,241.632 369.100 C 242.227 370.253,243.001 371.200,243.347 371.200 C 243.459 371.200,242.392 369.467,240.975 367.348 C 238.253 363.276,235.159 357.396,233.636 353.400 C 233.134 352.080,232.578 350.640,232.401 350.200 C 231.786 348.665,231.273 346.986,230.813 345.000 C 230.558 343.900,230.191 342.370,229.998 341.600 C 229.804 340.830,229.479 339.210,229.275 338.000 C 228.994 336.329,228.892 336.118,228.853 337.121 M208.093 337.356 C 207.831 337.931,207.028 338.761,206.308 339.199 C 205.589 339.638,205.280 339.998,205.622 339.999 C 206.431 340.000,208.937 337.412,208.730 336.789 C 208.642 336.525,208.355 336.780,208.093 337.356 M71.400 340.400 C 71.840 340.589,101.720 340.744,137.800 340.744 C 173.880 340.744,203.760 340.589,204.200 340.400 C 204.650 340.206,175.626 340.056,137.800 340.056 C 99.974 340.056,70.950 340.206,71.400 340.400 " stroke="none" fill="#b3dbfb" fill-rule="evenodd"></path></g></svg>