<svg height="512" viewBox="0 0 60 58" width="512" xmlns="http://www.w3.org/2000/svg"><g id="Page-1" fill="none" fill-rule="evenodd"><g id="064---NFC" fill-rule="nonzero"><path id="Shape" d="m16.852 10.844c8.1592161-7.70622281 20.4552092-9.02747789 30.0653838-3.23064927 9.6101746 5.79682867 14.1768047 17.28956757 11.1660348 28.10131787-3.0107699 10.8117502-12.8602882 18.2899953-24.0834186 18.2853314-7.8722283.0104832-15.283517-3.7109283-19.977-10.031" fill="#f29c1f"/><path id="Shape" d="m22 12v-11c0-.55228475-.4477153-1-1-1h-12c-.55228475 0-1 .44771525-1 1v11" fill="#285680"/><path id="Shape" d="m22 46v11c0 .5522847-.4477153 1-1 1h-12c-.55228475 0-1-.4477153-1-1v-11" fill="#285680"/><path id="Shape" d="m27.981 21.93v14.14l-3.381 8.93-.88 2.34c-.1480552.3965776-.5266869.659627-.95.66h-15.579c-.4233131-.000373-.80194478-.2634224-.95-.66l-.88-2.34-3.38-8.93v-14.13l3.38-8.94.88-2.34c.14805522-.3965776.5266869-.659627.95-.66h15.58c.4233131.000373.8019448.2634224.95.66l.879 2.34z" fill="#3b97d3"/><ellipse id="Oval" cx="14.996" cy="29.017" fill="#ecf0f1" rx="13.995" ry="13.983"/><path id="Shape" d="m27.411 22.57c-1.9837932-1.0383727-4.1908929-1.5772758-6.43-1.57-4.8889025-.0087841-9.4269575 2.5378744-11.96659585 6.7153955-2.53963834 4.177521-2.71158138 9.3784679-.45340415 13.7146045-5.35549549-2.7776445-8.32610383-8.6765259-7.36905649-14.6330938.95704735-5.9565679 5.62599696-10.6279944 11.58205649-11.5882008 5.9560594-.9602063 11.8565155 2.007273 14.637 7.3612946z" fill="#fff"/><path id="Shape" d="m15 44c-8.2727931-.0093865-14.97243536-6.7218579-14.96599543-14.9946538.00643994-8.272796 6.71652469-14.9748286 14.98932233-14.9713352 8.2727977.0034934 14.9772199 6.7111906 14.9766731 14.983989-.0132355 8.275869-6.7241211 14.9787016-15 14.982zm0-27.966c-7.16796227.0093858-12.97206642 5.8260193-12.9659953 12.9939852.00607111 7.1679658 5.82002005 12.9747591 12.9879879 12.9720027 7.1679679-.0027564 12.9774492-5.8140195 12.9780074-12.9819879-.0088289-7.1734526-5.826542-12.9840054-13-12.984z" fill="#bdc3c7"/><rect id="Rectangle-path" fill="#f3d55b" height="12" rx="2" width="16" x="7" y="23"/><path id="Rectangle-path" d="m7 26h16v2h-16z" fill="#464f5d"/><path id="Shape" d="m34 55c-2.8294425.0035615-5.6403492-.4565341-8.321-1.362-.5232898-.1772834-.8037834-.7452102-.6265-1.2685s.7452102-.8037834 1.2685-.6265c9.9139245 3.341364 20.8500664-.1241794 27.0301674-8.5655635 6.1801009-8.441384 6.1801009-19.913489 0-28.354873-6.180101-8.44138407-17.1162429-11.90692747-27.0301674-8.5655635-.5232898.1772834-1.0912166-.10321021-1.2685-.6265-.1772834-.5232898.1032102-1.09121659.6265-1.2685 9.7615672-3.29033444 20.5451958-.50728742 27.4953251 7.0960143 6.9501293 7.6033017 8.7559731 18.5928842 4.6044113 28.0204517s-13.4775494 15.5150918-23.7787364 15.521534z" fill="#e57e25"/><g fill="#fff"><path id="Shape" d="m39.259 40.63c-.3860696.0009294-.7381892-.2204617-.9046632-.5687962-.166474-.3483346-.1175624-.7613841.1256632-1.0612038 4.6901473-5.8417611 4.6901473-14.1582389 0-20-.2240055-.2784885-.2824233-.6553281-.1532479-.9885668.1291753-.3332387.4263191-.5722498.7795-.627s.7087424.0830783.9327479.3615668c5.2815092 6.5754335 5.2815092 15.9385665 0 22.514-.1906301.2349915-.4774116.3710289-.78.37z"/><path id="Shape" d="m43.935 44.391c-.3849352-.0000074-.7356938-.2209612-.9019273-.5681522-.1662334-.347191-.1184271-.7589759.1229273-1.0588478 6.4586222-8.0395081 6.4586222-19.4884919 0-27.528-.3462825-.430506-.2780059-1.0602174.1525-1.4065.430506-.3462825 1.0602175-.2780059 1.4065.1525 7.0467718 8.7720631 7.0467718 21.2639369 0 30.036-.1900382.2361143-.4769086.3732971-.78.373z"/><path id="Shape" d="m34.729 36.7c-.3798632-.0005561-.7266119-.2162885-.8949638-.5568087-.1683518-.3405202-.1292339-.7470236.1009638-1.0491913 2.7534959-3.5961172 2.7534959-8.5918828 0-12.188-.327217-.4393216-.2400742-1.0601354.1954481-1.3923924.4355224-.332257 1.057299-.2522729 1.3945519.1793924 3.2999354 4.3124733 3.2999354 10.3015267 0 14.614-.1894602.2480473-.4838742.393405-.796.393z"/></g></g></g></svg>