<svg height="512" viewBox="0 0 60 60" width="512" xmlns="http://www.w3.org/2000/svg"><g id="Page-1" fill="none" fill-rule="evenodd"><g id="016---Exterminator" fill-rule="nonzero"><path id="Shape" d="m10.91 33.38c0 .54-.02 1.07-.04 1.59-3.2-1.64-3.73-5.44-3.73-5.44s-.53-4.93.54-5.47c.09585955-.0514539.20148976-.0821207.31-.09.97-.16 1.85 1.18 1.85 1.18l.07.11c.29 4.14 1 5.48 1 8.12z" fill="#ffe0b2"/><path id="Shape" d="m38.09 25.26c-.29 4.14-1 5.48-1 8.12 0 .54.02 1.07.04 1.59.14 3.18.4 6.07-3.06 9.36l-.07.07c-3.96 3.82-3.98 7.6-7.99 7.6h-4.02c-4.01 0-4.03-3.78-7.99-7.6l-.07-.07c-3.46-3.29-3.2-6.18-3.06-9.36.02-.52.04-1.05.04-1.59 0-2.64-.71-3.98-1-8.12 0-.08-.01-.16-.01-.25 7.09-.98 8.07-4.01 14.1-4.01s7.01 3.03 14.1 4.01c0 .09-.01.17-.01.25z" fill="#ffe0b2"/><path id="Shape" d="m38.1 25.01c-7.09-.98-8.07-4.01-14.1-4.01-.542 0-1.031.032-1.5.077 4.744.458 6.147 3.041 12.6 3.933 0 .09-.01.17-.01.25-.29 4.14-1 5.48-1 8.12 0 .54.02 1.07.04 1.59.14 3.18.4 6.07-3.06 9.36l-.07.07c-3.96 3.82-3.98 7.6-7.99 7.6h3c4.01 0 4.03-3.78 7.99-7.6l.07-.07c3.46-3.29 3.2-6.18 3.06-9.36-.02-.52-.04-1.05-.04-1.59 0-2.64.71-3.98 1-8.12 0-.08.01-.16.01-.25z" fill="#dfc49c"/><path id="Shape" d="m40.86 29.53s-.53 3.8-3.73 5.44c-.02-.52-.04-1.05-.04-1.59 0-2.64.71-3.98 1-8.12l.07-.11s.88-1.34 1.85-1.18c.1085102.0078793.2141404.0385461.31.09 1.07.54.54 5.47.54 5.47z" fill="#ffe0b2"/><path id="Shape" d="m49 59h-25s8-1.08 10-7.04v-3.9l.07.07c.9389775.8181006 1.9612467 1.5353649 3.05 2.14.6739682.3867333 1.3882155.6985878 2.13.93 1.0281339 4.5588411 5.0766622 7.7976638 9.75 7.8z" fill="#9d27b0"/><path id="Shape" d="m39.25 51.2c-.7417845-.2314122-1.4560318-.5432667-2.13-.93-1.0887533-.6046351-2.1110225-1.3218994-3.05-2.14l-.07-.07v2.14l.12.07c.6739682.3867333 1.3882155.6985878 2.13.93 1.0281339 4.5588411 5.0766622 7.7976638 9.75 7.8h3c-4.6733378-.0023362-8.7218661-3.2411589-9.75-7.8z" fill="#6a1b9a"/><path id="Shape" d="m24 59h-22c-.55228475 0-1-.4477153-1-1v-2.94c.00048511-.3634685.20010287-.6974444.52-.87.44-.24.87-.48 1.3-.72 1.55857844-.9716908 3.2740661-1.6653298 5.07-2.05 1.0521344-.2196745 2.0618297-.6080188 2.99-1.15 1.0887533-.6046351 2.1110225-1.3218994 3.05-2.14l.07-.06v3.89c2 5.96 10 7.04 10 7.04z" fill="#9d27b0"/><path id="Shape" d="m40.58 20.67c-.26 1.97-.57 3.29-.57 3.29v.01c-.97-.16-1.85 1.18-1.85 1.18l-.07.11c0-.08.01-.16.01-.25-7.09-.98-8.07-4.01-14.1-4.01s-7.01 3.03-14.1 4.01c0 .09.01.17.01.25l-.07-.11s-.88-1.34-1.85-1.18v-.01s-.31-1.32-.57-3.29c5.02 4.72 5.32-4.67 16.58-4.67s11.57 9.39 16.58 4.67z" fill="#9d27b0"/><path id="Shape" d="m37.4 21.913c-.2 1.259-.387 2.047-.387 2.047v.01c-.510456-.0226727-1.0030287.1904313-1.336.578.7998823.1970008 1.6096981.3512196 2.426.462 0 .09-.01.17-.01.25l.07-.11s.88-1.34 1.85-1.18v-.01s.31-1.32.57-3.29c-1.283 1.206-2.257 1.488-3.183 1.243z" fill="#6a1b9a"/><path id="Shape" d="m41 15c-.0111088 1.8973435-.1514336 3.7917274-.42 5.67-5.01 4.72-5.33-4.67-16.58-4.67s-11.56 9.39-16.58 4.67c-.26856642-1.8782726-.40889115-3.7726565-.42-5.67 0-9 11-14 17-14s17 5 17 14z" fill="#673ab7"/><path id="Shape" d="m24 1c-.5014061.00293363-1.0022302.03465248-1.5.095 6.162.718 15.5 5.611 15.5 13.905-.0111088 1.8973435-.1514336 3.7917274-.42 5.67-.3327643.3194889-.6977095.6036703-1.089.848 1.23.728 2.39.753 4.089-.848.2685664-1.8782726.4088912-3.7726565.42-5.67 0-9-11-14-17-14z" fill="#4527a0"/><path id="Shape" d="m34 44.4v7.56c-2 5.96-10 7.04-10 7.04s-8-1.08-10-7.04v-7.56c3.96 3.82 3.98 7.6 7.99 7.6h4.02c4.01 0 4.03-3.78 7.99-7.6z" fill="#ffe0b2"/><path id="Shape" d="m31 48.161v3.8c-1.457 4.342-6.087 6.088-8.5 6.719.4940536.1328508.9947431.2396645 1.5.32 0 0 8-1.08 10-7.04v-7.56c-1.1439351 1.1317669-2.1508462 2.3940978-3 3.761z" fill="#dfc49c"/><path id="Shape" d="m59 49c-.0111603 5.0860381-3.8381127 9.3535223-8.8928992 9.9165872-5.0547865.5630648-9.7270094-2.7576758-10.8571008-7.7165872-.1697764-.7209125-.2536926-1.4593751-.25-2.2 0-5.5228475 4.4771525-10 10-10s10 4.4771525 10 10z" fill="#ffdc00"/><path id="Shape" d="m49 39c-.5024253.0040337-1.0038371.045818-1.5.125 4.8907007.7345755 8.5070086 4.9382678 8.5027523 9.883825-.0042563 4.9455573-3.6277944 9.1430187-8.5197523 9.869175 3.7183473.5860082 7.4507601-.9657018 9.6577286-4.0150956 2.2069685-3.0493939 2.5145503-7.0797912.7958772-10.4287724s-5.1723943-5.4491048-8.9366058-5.434132z" fill="#fec108"/><path id="Shape" d="m46 47h6c.5522847 0 1 .4477153 1 1v3c0 2.209139-1.790861 4-4 4s-4-1.790861-4-4v-3c0-.5522847.4477153-1 1-1z" fill="#f44335"/><path id="Shape" d="m52 47h-3c.5522847 0 1 .4477153 1 1v3c-.0032957 1.6269922-.9917334 3.08988-2.5 3.7 1.2315812.5040787 2.6334251.3608094 3.7375754-.3819826 1.1041502-.7427919 1.7651788-1.9872732 1.7624246-3.3180174v-3c0-.5522847-.4477153-1-1-1z" fill="#c81e1e"/><path id="Shape" d="m49 43c1.6568542 0 3 1.3431458 3 3v1h-6v-1c0-1.6568542 1.3431458-3 3-3z" fill="#ff5722"/><path id="Shape" d="m49 43c-.5281059.0027453-1.0459153.1463511-1.5.416.925812.5314193 1.4976542 1.5165128 1.5 2.584v1h3v-1c0-1.6568542-1.3431458-3-3-3z" fill="#d84315"/><g fill="#000"><path id="Shape" d="m49 38c-6.0721626.0071635-10.9928365 4.9278374-11 11 0 .206.02.406.031.609-.144-.074-.282-.133-.43-.216-.9194655-.5135404-1.7900848-1.11002-2.601-1.782v-2.8c3.31-3.292 3.291-6.336 3.159-9.279 1.9737917-1.38846 3.3052763-3.5132845 3.694-5.895.351-3.275.112-5.351-.708-6.189.5596703-2.7814013.8460328-5.6108634.855-8.448 0-9.848-11.718-15-18-15s-18 5.152-18 15c.00871787 2.8371495.29508279 5.6666359.855 8.448-.82.842-1.058 2.921-.7 6.22.39457863 2.370138 1.72395434 4.4827285 3.69 5.864-.132 2.943-.151 5.987 3.159 9.28v2.8c-.8132623.6758074-1.6877061 1.274393-2.612 1.788-.8296617.4891296-1.73351683.8397281-2.676 1.038-1.90668025.4063957-3.72925148 1.1377244-5.388 2.162-.424.24-.852.474-1.281.708-.64472032.349429-1.0465053 1.0236756-1.047 1.757v2.935c0 1.1045695.8954305 2 2 2h47c6.0751322 0 11-4.9248678 11-11s-4.9248678-11-11-11zm-34 9.036c.533.7.98 1.383 1.393 2.019 1.375 2.117 2.562 3.945 5.597 3.945h4.02c3.035 0 4.222-1.828 5.6-3.945.414-.636.86-1.318 1.393-2.019v1.027 3.727c-1.72 4.769-8 6.026-9 6.2-1-.17-7.273-1.412-9-6.2zm-4.845-23.077c-.36876797-.4034429-.82801833-.7136083-1.34-.905-.019-.09-.038-.187-.059-.293.39429246.1605402.8153028.2453529 1.241.25 1.452 0 2.67-1.016 3.931-2.067 2.6951677-2.6081365 6.3224449-4.028508 10.072-3.944 3.7493392-.0826922 7.3761334 1.3369891 10.073 3.943 1.6 1.336 3.141 2.607 5.172 1.816-.022.108-.041.2-.06.3-.5115517.1898156-.9707873.4982575-1.34.9-2.2643606-.3507062-4.4584723-1.0595731-6.5-2.1-4.5833304-2.4773401-10.1066696-2.4773401-14.69 0-2.0415277 1.0404269-4.2356394 1.7492938-6.5 2.1zm29.713 5.433c-.2471433 1.3420993-.8588006 2.5903229-1.768 3.608.0438257-.9985679.1672168-1.9920505.369-2.971.2805654-1.4596753.4785467-2.9340185.593-4.416.1869408-.2677028.4342793-.4876354.722-.642.2630695 1.4598085.2914263 2.952252.084 4.421zm-16.868-27.344v6.952c0 .55228475.4477153 1 1 1s1-.44771525 1-1v-6.952c5.628.5 15 5.03 15 12.952-.0037663 1.7176986-.1159896 3.4334455-.336 5.137-1.646 1.455-2.325.923-4.31-.731-2.816909-2.650439-6.4901721-4.203966-10.354-4.379v-2.027c0-.5522847-.4477153-1-1-1s-1 .4477153-1 1v2.027c-3.8645074.1737345-7.5384192 1.7282456-10.354 4.381-1.984 1.655-2.662 2.185-4.31.729-.22007932-1.7035478-.33230288-3.4192991-.336-5.137 0-7.922 9.372-12.451 15-12.952zm-14.864 27.375c-.20990489-1.4818436-.18290123-2.9876353.08-4.461.28523642.159337.53097051.3808053.719.648.11494026 1.481599.31291806 2.955582.593 4.415.20222822.9772755.32661833 1.9690526.372 2.966-.89606739-1.0104716-1.50516722-2.242483-1.764-3.568zm3.716 5.91c.029-.638.058-1.288.058-1.953-.0166548-1.2475408-.1553151-2.4904602-.414-3.711-.187-1.035-.392-2.219-.533-3.816 2.2735142-.4066216 4.4756475-1.1423504 6.537-2.184 4.0447822-2.2253722 8.9472178-2.2253722 12.992 0 2.0635479 1.0425056 4.2680669 1.7785805 6.544 2.185-.143 1.632-.35 2.785-.536 3.815-.2586849 1.2205398-.3973452 2.4634592-.414 3.711 0 .665.029 1.315.058 1.953.139 3.021.248 5.406-2.767 8.273-.03.028-.056.056-.085.084l-.006.006c-1.2857137 1.2847461-2.4136736 2.7181951-3.36 4.27-1.363 2.104-2.046 3.034-3.916 3.034h-4.02c-1.87 0-2.553-.93-3.92-3.034-.9465266-1.550177-2.0741173-2.9822407-3.359-4.266l-.011-.01c-.029-.029-.054-.057-.084-.085-3.016-2.866-2.903-5.251-2.764-8.272zm-9.852 19.732c.439-.239.878-.479 1.318-.728 1.46261796-.9099182 3.0691146-1.5648927 4.751-1.937 1.15825757-.2365572 2.2699651-.6611748 3.291-1.257.5648045-.311023 1.1122793-.6525271 1.64-1.023v1.84c.0001866.1081012.0177438.21547.052.318.8996126 2.4732549 2.6985677 4.5164507 5.038 5.722h-16.09zm27.91 2.935c2.3394323-1.2055493 4.1383874-3.2487451 5.038-5.722.0342562-.10253.0518134-.2098988.052-.318v-1.839c.5247515.3696552 1.0692225.710492 1.631 1.021.5717026.3190773 1.1683218.5913015 1.784.814.6885196 2.4485685 2.202348 4.5838261 4.285 6.044zm19.09 0c-4.9705627 0-9-4.0294373-9-9s4.0294373-9 9-9 9 4.0294373 9 9c-.0055111 4.9682782-4.0317218 8.9944889-9 9z"/><path id="Shape" d="m54 49v-.718c.2531094-.1687879.4898145-.3609644.707-.574.3910176-.3904653.3914653-1.0239824.001-1.415s-1.0239824-.3914653-1.415-.001c-.036.037-.079.065-.116.1-.0569985-.0410212-.1160772-.0790719-.177-.114v-.278c0-2.209139-1.790861-4-4-4s-4 1.790861-4 4v.278c-.0609008.034603-.1199791.0723196-.177.113-.037-.034-.08-.062-.116-.1-.3910176-.3904653-1.0245347-.3900175-1.415.001-.3904653.3910176-.3900176 1.0245347.001 1.415.2171855.2130356.4538906.4052121.707.574v.719h-1c-.5522847 0-1 .4477153-1 1s.4477153 1 1 1h1c.0083329.1781818.0263596.3557779.054.532l-.761.761c-.2599566.2510745-.3642126.6228779-.2726972.9725073.0915155.3496295.3645604.6226744.7141899.7141899.3496294.0915154.7214328-.0127406.9725073-.2726972l.066-.065c.9050041 1.4655405 2.5045478 2.3577328 4.227 2.3577328s3.3219959-.8921923 4.227-2.3577328l.066.065c.3923789.3789722 1.0160848.3735524 1.4018186-.0121814s.3911536-1.0094397.0121814-1.4018186l-.761-.761c.0276404-.1762221.0456671-.3538182.054-.532h1c.5522847 0 1-.4477153 1-1s-.4477153-1-1-1zm-5-5c1.1045695 0 2 .8954305 2 2h-4c0-1.1045695.8954305-2 2-2zm0 10c-1.6568542 0-3-1.3431458-3-3v-3h6v3c0 1.6568542-1.3431458 3-3 3z"/></g></g></g></svg>