<svg height="512" viewBox="0 0 512 512" width="512" xmlns="http://www.w3.org/2000/svg"><g id="Flat"><rect fill="#91563a" height="64" rx="32" width="464" x="24" y="224"/><path d="m128 24a0 0 0 0 1 0 0v8a40 40 0 0 1 -40 40 0 0 0 0 1 0 0v-8a40 40 0 0 1 40-40z" fill="#598b44" transform="matrix(-1 0 0 -1 216 96)"/><path d="m128 88a0 0 0 0 1 0 0v8a40 40 0 0 1 -40 40 0 0 0 0 1 0 0v-8a40 40 0 0 1 40-40z" fill="#598b44" transform="matrix(-1 0 0 -1 216 224)"/><path d="m128 152a0 0 0 0 1 0 0v8a40 40 0 0 1 -40 40 0 0 0 0 1 0 0v-8a40 40 0 0 1 40-40z" fill="#598b44" transform="matrix(-1 0 0 -1 216 352)"/><path d="m80 64h16v192h-16z" fill="#598b44"/><path d="m48 24a40 40 0 0 1 40 40v8a0 0 0 0 1 0 0 40 40 0 0 1 -40-40v-8a0 0 0 0 1 0 0z" fill="#5f9448"/><path d="m48 88a40 40 0 0 1 40 40v8a0 0 0 0 1 0 0 40 40 0 0 1 -40-40v-8a0 0 0 0 1 0 0z" fill="#5f9448"/><path d="m48 152a40 40 0 0 1 40 40v8a0 0 0 0 1 0 0 40 40 0 0 1 -40-40v-8a0 0 0 0 1 0 0z" fill="#5f9448"/><path d="m240 24a0 0 0 0 1 0 0v8a40 40 0 0 1 -40 40 0 0 0 0 1 0 0v-8a40 40 0 0 1 40-40z" fill="#598b44" transform="matrix(-1 0 0 -1 440 96)"/><path d="m240 88a0 0 0 0 1 0 0v8a40 40 0 0 1 -40 40 0 0 0 0 1 0 0v-8a40 40 0 0 1 40-40z" fill="#598b44" transform="matrix(-1 0 0 -1 440 224)"/><path d="m240 152a0 0 0 0 1 0 0v8a40 40 0 0 1 -40 40 0 0 0 0 1 0 0v-8a40 40 0 0 1 40-40z" fill="#598b44" transform="matrix(-1 0 0 -1 440 352)"/><path d="m192 64h16v192h-16z" fill="#598b44"/><path d="m160 24a40 40 0 0 1 40 40v8a0 0 0 0 1 0 0 40 40 0 0 1 -40-40v-8a0 0 0 0 1 0 0z" fill="#5f9448"/><path d="m160 88a40 40 0 0 1 40 40v8a0 0 0 0 1 0 0 40 40 0 0 1 -40-40v-8a0 0 0 0 1 0 0z" fill="#5f9448"/><path d="m160 152a40 40 0 0 1 40 40v8a0 0 0 0 1 0 0 40 40 0 0 1 -40-40v-8a0 0 0 0 1 0 0z" fill="#5f9448"/><path d="m352 24a0 0 0 0 1 0 0v8a40 40 0 0 1 -40 40 0 0 0 0 1 0 0v-8a40 40 0 0 1 40-40z" fill="#598b44" transform="matrix(-1 0 0 -1 664 96)"/><path d="m352 88a0 0 0 0 1 0 0v8a40 40 0 0 1 -40 40 0 0 0 0 1 0 0v-8a40 40 0 0 1 40-40z" fill="#598b44" transform="matrix(-1 0 0 -1 664 224)"/><path d="m352 152a0 0 0 0 1 0 0v8a40 40 0 0 1 -40 40 0 0 0 0 1 0 0v-8a40 40 0 0 1 40-40z" fill="#598b44" transform="matrix(-1 0 0 -1 664 352)"/><path d="m304 64h16v192h-16z" fill="#598b44"/><path d="m272 24a40 40 0 0 1 40 40v8a0 0 0 0 1 0 0 40 40 0 0 1 -40-40v-8a0 0 0 0 1 0 0z" fill="#5f9448"/><path d="m272 88a40 40 0 0 1 40 40v8a0 0 0 0 1 0 0 40 40 0 0 1 -40-40v-8a0 0 0 0 1 0 0z" fill="#5f9448"/><path d="m272 152a40 40 0 0 1 40 40v8a0 0 0 0 1 0 0 40 40 0 0 1 -40-40v-8a0 0 0 0 1 0 0z" fill="#5f9448"/><path d="m464 24a0 0 0 0 1 0 0v8a40 40 0 0 1 -40 40 0 0 0 0 1 0 0v-8a40 40 0 0 1 40-40z" fill="#598b44" transform="matrix(-1 0 0 -1 888 96)"/><path d="m464 88a0 0 0 0 1 0 0v8a40 40 0 0 1 -40 40 0 0 0 0 1 0 0v-8a40 40 0 0 1 40-40z" fill="#598b44" transform="matrix(-1 0 0 -1 888 224)"/><path d="m464 152a0 0 0 0 1 0 0v8a40 40 0 0 1 -40 40 0 0 0 0 1 0 0v-8a40 40 0 0 1 40-40z" fill="#598b44" transform="matrix(-1 0 0 -1 888 352)"/><path d="m416 64h16v192h-16z" fill="#598b44"/><path d="m384 24a40 40 0 0 1 40 40v8a0 0 0 0 1 0 0 40 40 0 0 1 -40-40v-8a0 0 0 0 1 0 0z" fill="#5f9448"/><path d="m384 88a40 40 0 0 1 40 40v8a0 0 0 0 1 0 0 40 40 0 0 1 -40-40v-8a0 0 0 0 1 0 0z" fill="#5f9448"/><path d="m384 152a40 40 0 0 1 40 40v8a0 0 0 0 1 0 0 40 40 0 0 1 -40-40v-8a0 0 0 0 1 0 0z" fill="#5f9448"/><rect fill="#dfdfdd" height="216" rx="24" width="320" x="96" y="256"/><path d="m136 256h240v216h-240z" fill="#348ed8"/><g fill="#2b78b7"><path d="m160 280h16v16h-16z"/><path d="m192 280h16v16h-16z"/><path d="m224 280h16v16h-16z"/><path d="m328 312a24 24 0 0 0 -48 0 16 16 0 0 0 -16 16 16 16 0 0 0 16 16h48a16 16 0 0 0 16-16 16 16 0 0 0 -16-16z"/><path d="m264 368h16v16h-16z"/><path d="m256 400h16v16h-16z"/><path d="m296 368h16v16h-16z"/><path d="m288 400h16v16h-16z"/><path d="m328 368h16v16h-16z"/><path d="m320 400h16v16h-16z"/><path d="m160 320h40v16h-40z"/><path d="m160 352h80v16h-80z"/><path d="m184 384h56v16h-56z"/><path d="m176 416h64v16h-64z"/></g><path d="m143.029 384a16.972 16.972 0 0 0 -12 4.971l-35.029 35.029v-80l-22.627 22.627a32 32 0 0 0 -9.373 22.628v106.745h64v-8a43.266 43.266 0 0 0 0-48l27.029-27.029a16.972 16.972 0 0 0 4.971-12 16.971 16.971 0 0 0 -16.971-16.971z" fill="#fdc8a2"/><path d="m438.627 366.627-22.627-22.627v80l-35.029-35.029a16.972 16.972 0 0 0 -12-4.971 16.971 16.971 0 0 0 -16.971 16.971 16.972 16.972 0 0 0 4.971 12l27.029 27.029a43.266 43.266 0 0 0 0 48v8h64v-106.745a32 32 0 0 0 -9.373-22.628z" fill="#fdc8a2"/></g></svg>